<?xml version="1.0" encoding="utf-8"?>
<!-- Generator: Adobe Illustrator 16.0.0, SVG Export Plug-In . SVG Version: 6.00 Build 0)  -->
<!DOCTYPE svg PUBLIC "-//W3C//DTD SVG 1.1//EN" "http://www.w3.org/Graphics/SVG/1.1/DTD/svg11.dtd">
<svg xmlns="http://www.w3.org/2000/svg" xmlns:xlink="http://www.w3.org/1999/xlink" version="1.1" id="Layer_1" x="0px" y="0px" width="512px" height="512px" viewBox="0 0 24 24" enable-background="new 0 0 24 24" xml:space="preserve">
<g>
	<path d="M11.99,12.664c0.48-0.001,1.064-0.128,1.283-0.409c0.085-0.109,0.065-0.266-0.044-0.351   c-0.107-0.086-0.266-0.065-0.351,0.043c-0.06,0.077-0.409,0.215-0.891,0.217c-0.002,0-0.004,0-0.007,0   c-0.362,0-0.652-0.083-0.759-0.218c-0.085-0.108-0.243-0.127-0.352-0.042s-0.127,0.243-0.041,0.351   c0.279,0.354,0.838,0.408,1.152,0.408C11.984,12.664,11.987,12.664,11.99,12.664z" fill="#D80027"/>
	<path d="M18.674,3.202L18.674,3.202l-0.001-0.001c0-0.001-0.001-0.001-0.001-0.002l0,0c-0.026-0.053-0.462-0.913-1.506-1.764   c-0.053-0.052-1.336-1.26-5.112-1.283c-0.002,0-0.003-0.002-0.005-0.002c-0.017,0-0.032,0.001-0.049,0.001S11.968,0.15,11.951,0.15   c-0.002,0-0.003,0.002-0.005,0.002c-3.774,0.022-5.059,1.23-5.096,1.268C5.79,2.285,5.354,3.146,5.328,3.198l0,0   c0,0.001-0.001,0.001-0.001,0.002L5.326,3.202l0,0C4.748,4.329,4.595,5.127,4.585,5.19C4.337,8.906,4.581,19.958,4.584,20.069   c0,0.017,0.015,0.027,0.019,0.042c0.007,0.032,0.018,0.055,0.036,0.082c0.019,0.028,0.036,0.048,0.064,0.066   c0.014,0.009,0.018,0.027,0.033,0.034c0.032,0.013,0.065,0.02,0.098,0.02c0.002,0,0.004,0,0.006,0c0.005,0,0.008-0.005,0.012-0.005   c0.054-0.004,0.102-0.027,0.142-0.063c0.014-0.012,0.022-0.024,0.033-0.04c0.012-0.016,0.03-0.026,0.038-0.045l0.531-1.256   l-0.094,0.816c-0.001,0.01,0.008,0.017,0.008,0.026c-0.001,0.011-0.01,0.018-0.009,0.029c0.003,0.029,0.025,0.047,0.037,0.072   c0.012,0.024,0.017,0.048,0.035,0.067c0.026,0.028,0.059,0.039,0.095,0.053c0.02,0.008,0.031,0.027,0.054,0.03   c0.01,0.001,0.02,0.001,0.028,0.001s0.018,0,0.027-0.001l2.396-0.26l-0.105,0.215c-0.006,0.012,0.002,0.024-0.002,0.037   c-0.011,0.032-0.009,0.059-0.006,0.093c0.003,0.033,0.005,0.06,0.021,0.088c0.006,0.012,0,0.025,0.008,0.037   c0.031,0.044,0.603,0.801,1.959,1.231l0.688,2.235c0.017,0.052,0.049,0.097,0.091,0.127c0.043,0.031,0.095,0.049,0.148,0.049h0.521   c0.126,0,0.231-0.093,0.248-0.218l0.248-1.899c0.008,0,0.014-0.001,0.021-0.001c0.014,0,0.023,0.002,0.037,0.002   c0.005,0,0.008-0.005,0.014-0.005c0.018,0,0.031-0.003,0.049-0.003l0.252,1.907c0.017,0.125,0.123,0.217,0.248,0.217h0.52   c0.109,0,0.207-0.072,0.239-0.176l0.697-2.266c1.29-0.435,1.84-1.157,1.87-1.2c0.008-0.011,0.003-0.025,0.009-0.037   c0.014-0.028,0.017-0.054,0.019-0.086c0.004-0.034,0.006-0.063-0.006-0.095c-0.004-0.012,0.004-0.024-0.002-0.036l-0.021-0.042   l0.859,0.164c0.016,0.003,0.031,0.004,0.047,0.004c0.051,0,0.099-0.021,0.141-0.05c0.013-0.009,0.021-0.018,0.031-0.029   c0.013-0.012,0.028-0.02,0.038-0.035l0.298-0.464l-0.057,0.536c-0.007,0.071,0.016,0.141,0.063,0.194   c0.047,0.052,0.114,0.083,0.186,0.083h1.617c0.002,0,0.004,0,0.006,0c0.068,0,0.13-0.028,0.176-0.073   c0.013-0.013,0.011-0.034,0.021-0.049c0.024-0.038,0.053-0.074,0.054-0.123c0.003-0.111,0.247-11.163-0.004-14.908   C19.405,5.127,19.252,4.329,18.674,3.202z M7.292,8.124H8.49c0.063,0,0.118-0.027,0.163-0.067c0.016-0.014,0.02-0.032,0.031-0.049   c0.018-0.025,0.041-0.044,0.049-0.076L9.22,5.889l0.857,1.534C9.975,7.389,9.869,7.366,9.759,7.366   c-0.702,0-1.269,0.711-1.269,1.587c0,0.878,0.566,1.589,1.269,1.589c0.7,0,1.269-0.71,1.269-1.589c0-0.342-0.088-0.656-0.235-0.915   C10.81,8.02,10.816,8,10.827,7.978c0.015-0.03,0.021-0.055,0.022-0.088c0.001-0.019,0.016-0.033,0.013-0.052l-0.164-1.137   l0.53,1.269c0.009,0.021,0.027,0.032,0.041,0.049c0.011,0.015,0.019,0.027,0.032,0.04c0.045,0.038,0.098,0.065,0.157,0.065h1.783   c-0.103,0.229-0.166,0.49-0.166,0.771c0,0.877,0.567,1.589,1.268,1.589c0.703,0,1.267-0.712,1.267-1.589   c0-0.281-0.063-0.542-0.165-0.771h1.402v4.704c-0.04-0.001-0.081-0.01-0.119,0.01c-2.312,1.187-7.258,1.139-9.437-0.068V8.124z    M10.623,8.139c0,0.319-0.259,0.58-0.579,0.58c-0.318,0-0.578-0.261-0.578-0.58c0-0.321,0.26-0.579,0.578-0.579   c0.044,0,0.082,0.016,0.123,0.025l0.23,0.412c0.01,0.018,0.027,0.027,0.041,0.042c0.011,0.012,0.019,0.022,0.031,0.032   c0.043,0.032,0.092,0.054,0.146,0.054c0.002,0,0.003,0,0.005,0C10.62,8.129,10.623,8.133,10.623,8.139z M14.06,8.124h1.14   c-0.024,0.298-0.266,0.535-0.568,0.535C14.325,8.659,14.084,8.422,14.06,8.124z M15.961,17.338   c-0.159,0.256-0.355,0.396-0.513,0.474v-3.987c0.113-0.028,0.222-0.06,0.331-0.091C16.483,15.804,16.271,16.839,15.961,17.338z    M10.314,14.105c-0.073,0.326-0.198,0.582-0.407,0.719c-0.258,0.17-0.565,0.162-0.756,0.138v-1.035   C9.523,14.003,9.914,14.061,10.314,14.105z M9.151,15.469c0.057,0.005,0.117,0.009,0.183,0.009c0.253,0,0.563-0.049,0.844-0.232   c0.342-0.222,0.555-0.594,0.649-1.09c0.414,0.032,0.835,0.052,1.257,0.052c0.373,0,0.746-0.016,1.114-0.042   c0.097,0.492,0.309,0.859,0.647,1.08c0.28,0.184,0.591,0.232,0.844,0.232c0.099,0,0.184-0.008,0.259-0.018v3.108H9.151V15.469z    M14.948,14.955c-0.174,0.03-0.539,0.061-0.83-0.128c-0.206-0.135-0.33-0.387-0.405-0.706c0.426-0.044,0.84-0.105,1.235-0.185   V14.955z M8.651,13.812v4c-0.157-0.078-0.353-0.218-0.512-0.473c-0.311-0.5-0.522-1.537,0.188-3.617   C8.435,13.752,8.541,13.783,8.651,13.812z M11.158,23.35l-0.544-1.769c0.268,0.056,0.56,0.094,0.877,0.118l-0.216,1.651H11.158z    M12.946,23.35H12.83l-0.218-1.656c0.32-0.027,0.614-0.07,0.883-0.13L12.946,23.35z M12.012,21.232   c-2.126-0.011-3.139-0.905-3.422-1.208l0.468-0.956h5.908l0.469,0.957C15.151,20.328,14.137,21.221,12.012,21.232z M17.959,18.504   c0.002-0.015-0.011-0.026-0.012-0.04c-0.002-0.033-0.012-0.058-0.026-0.087c-0.015-0.03-0.028-0.054-0.053-0.076   c-0.011-0.009-0.011-0.025-0.023-0.033c-0.018-0.011-0.038-0.004-0.058-0.01c-0.019-0.007-0.03-0.026-0.051-0.028   c-0.014-0.001-0.024,0.011-0.038,0.012c-0.035,0.001-0.062,0.013-0.093,0.028c-0.027,0.014-0.049,0.026-0.069,0.048   c-0.011,0.011-0.027,0.012-0.036,0.025l-0.776,1.209l-1.063-0.202l-0.234-0.48c0.004-0.019,0.021-0.032,0.021-0.053v-0.469   c0.243-0.078,0.634-0.268,0.928-0.731c0.542-0.854,0.498-2.215-0.121-4.039c0.21-0.075,0.408-0.157,0.593-0.246v0.617   c0,0.138,0.112,0.25,0.25,0.25s0.25-0.112,0.25-0.25V7.874c0-0.138-0.112-0.25-0.25-0.25h-5.473L10.4,4.694   c-0.009-0.021-0.031-0.028-0.045-0.045c-0.021-0.027-0.037-0.051-0.067-0.067c-0.028-0.016-0.056-0.019-0.089-0.022   c-0.022-0.003-0.041-0.02-0.065-0.017c-0.012,0.002-0.018,0.014-0.028,0.017c-0.011,0.003-0.021-0.004-0.032,0   c-0.021,0.009-0.028,0.032-0.046,0.046c-0.026,0.021-0.05,0.037-0.066,0.066C9.945,4.702,9.943,4.729,9.938,4.762   c-0.003,0.022-0.02,0.041-0.016,0.064l0.253,1.749l-0.833-1.49C9.342,5.083,9.34,5.083,9.339,5.082   C9.323,5.055,9.291,5.043,9.266,5.024C9.239,5.004,9.22,4.976,9.188,4.967c-0.002,0-0.003-0.003-0.005-0.003   c-0.035-0.008-0.063,0.01-0.096,0.015C9.059,4.983,9.03,4.974,9.003,4.989C9.001,4.99,9.001,4.992,9,4.993   c-0.034,0.02-0.05,0.057-0.071,0.09C8.915,5.104,8.892,5.119,8.886,5.144C8.885,5.146,8.883,5.147,8.882,5.149L8.293,7.624H7.042   c-0.138,0-0.25,0.112-0.25,0.25v6.075c0,0.138,0.112,0.25,0.25,0.25s0.25-0.112,0.25-0.25v-0.616   c0.175,0.084,0.361,0.163,0.56,0.234c-0.624,1.83-0.669,3.195-0.127,4.05c0.294,0.463,0.685,0.653,0.927,0.731v0.411l-0.219,0.447   l-2.398,0.26l0.256-2.231c0.003-0.022-0.014-0.038-0.017-0.059c-0.005-0.034-0.009-0.061-0.025-0.09   c-0.017-0.028-0.038-0.045-0.064-0.065c-0.017-0.013-0.023-0.036-0.044-0.045c-0.013-0.005-0.024,0.003-0.037,0   C6.09,16.973,6.084,16.96,6.07,16.958c-0.025-0.002-0.039,0.014-0.062,0.017C5.977,16.98,5.95,16.984,5.922,17   c-0.032,0.018-0.054,0.042-0.073,0.073c-0.011,0.015-0.029,0.019-0.037,0.036l-0.751,1.776C5.005,15.934,4.884,8.205,5.08,5.253   c0.001-0.008,0.149-0.768,0.693-1.827c0,0,0-0.001,0-0.002c0.001-0.001,0.002-0.001,0.002-0.002   c0.004-0.008,0.411-0.815,1.407-1.629C7.194,1.782,8.42,0.663,12,0.652c3.582,0.011,4.806,1.13,4.833,1.155   c0.98,0.8,1.388,1.608,1.392,1.616c0,0.001,0.001,0.001,0.002,0.002c0,0,0,0.001,0,0.002c0.537,1.043,0.688,1.797,0.69,1.797   c0.226,3.391,0.039,12.956,0.004,14.589H17.82L17.959,18.504z" fill="#D80027"/>
</g>
</svg>
