<?xml version="1.0" encoding="iso-8859-1"?>
<!-- Generator: Adobe Illustrator 19.0.0, SVG Export Plug-In . SVG Version: 6.00 Build 0)  -->
<svg version="1.1" id="Capa_1" xmlns="http://www.w3.org/2000/svg" xmlns:xlink="http://www.w3.org/1999/xlink" x="0px" y="0px"
	 viewBox="0 0 512 512" style="enable-background:new 0 0 512 512;" xml:space="preserve">
<path style="fill:#F7DB94;" d="M504.5,284.933c0,127.965-74.172,173.445-165.667,173.445c-91.494,0-165.665-45.48-165.665-173.445
	S247.339,53.232,338.833,53.232C430.328,53.232,504.5,156.968,504.5,284.933z"/>
<path style="fill:#EFCB7B;" d="M226.725,284.933c0-121.099,55.69-220.48,126.675-230.799
	c-97.574-11.899-180.232,95.645-180.232,230.799c0,127.965,74.172,173.445,165.665,173.445c4.91,0,9.766-0.14,14.567-0.407
	C282.415,453.252,226.725,406.032,226.725,284.933z"/>
<path style="fill:#FFE9B8;" d="M338.833,284.933c0,127.965-74.172,173.445-165.667,173.445C81.672,458.378,7.5,412.898,7.5,284.933
	S81.672,53.232,173.165,53.232C264.661,53.232,338.833,156.968,338.833,284.933z"/>
<path style="fill:#F9DDAC;" d="M61.057,284.933c0-121.099,55.69-220.48,126.675-230.799C90.171,42.237,7.5,149.764,7.5,284.933
	c0,122.296,69.284,179.222,180.232,173.038C116.749,453.252,61.057,406.032,61.057,284.933z"/>
<circle style="fill:#FFB92E;" cx="173.165" cy="317.051" r="90.958"/>
<path style="fill:#FFA92C;" d="M127.206,317.051c0-42.469,29.107-78.138,68.46-88.152c-7.196-1.831-14.734-2.807-22.499-2.807
	c-50.235,0-90.96,40.725-90.96,90.959c0,59.236,55.848,102.812,113.459,88.154C156.313,395.19,127.206,359.52,127.206,317.051z"/>
<path d="M444.584,95.4c-2.833-3.02-7.58-3.17-10.601-0.335s-3.17,7.582-0.335,10.602C473.909,148.556,497,213.905,497,284.957
	c0,137.155-86.013,165.945-158.168,165.945c-24.099,0-45.866-3.239-64.935-9.646c58.934-35.802,75.397-103.515,72.042-172.407
	c-3.232-67.706-28.05-139.056-77.972-184.27c42.886-30.573,94.937-32.645,140.41-0.925c3.397,2.37,8.072,1.536,10.442-1.86
	c2.37-3.397,1.537-8.072-1.86-10.442c-52.245-36.443-112.693-32.827-160.904,3.359c-25.099-18.907-53.402-28.954-82.891-28.954
	C75.594,45.756,0,155.091,0,284.957c0,62.192,17.148,109.379,50.967,140.249c54.305,49.571,150.648,48.992,205.12,25.257
	C322.553,479.27,512,490.5,512,284.957C512,210.131,487.427,141.04,444.584,95.4z M15,284.957
	C15,112.515,146.793,5.529,251.281,90.09c64.595,52.264,89.186,155.007,77.244,235.04c-12.887,86.117-70.118,125.772-155.36,125.772
	C101.011,450.902,15,422.112,15,284.957z"/>
<path d="M271.626,317.074c0-54.29-44.169-98.458-98.459-98.458s-98.459,44.168-98.459,98.458c0,13.044,2.518,25.726,7.482,37.695
	c1.587,3.826,5.973,5.643,9.801,4.055c3.826-1.587,5.642-5.976,4.055-9.801c-4.205-10.14-6.338-20.888-6.338-31.949
	c0-46.02,37.439-83.459,83.46-83.459s83.46,37.439,83.46,83.459c0,74.47-90.59,111.424-142.771,58.71
	c-2.915-2.944-7.664-2.967-10.606-0.054c-2.943,2.914-2.968,7.663-0.054,10.606C164.766,448.537,271.626,404.914,271.626,317.074z"
	/>
<g>
</g>
<g>
</g>
<g>
</g>
<g>
</g>
<g>
</g>
<g>
</g>
<g>
</g>
<g>
</g>
<g>
</g>
<g>
</g>
<g>
</g>
<g>
</g>
<g>
</g>
<g>
</g>
<g>
</g>
</svg>
