<?xml version="1.0" encoding="iso-8859-1"?>
<!-- Generator: Adobe Illustrator 19.0.0, SVG Export Plug-In . SVG Version: 6.00 Build 0)  -->
<svg version="1.1" id="Capa_1" xmlns="http://www.w3.org/2000/svg" xmlns:xlink="http://www.w3.org/1999/xlink" x="0px" y="0px"
	 viewBox="0 0 512 512" style="enable-background:new 0 0 512 512;" xml:space="preserve">
<path style="fill:#E1E4FB;" d="M512,255.9c0-22.8-14.399-44.101-38.699-57.9c14.099-24.3,15.899-50.801,4.499-70.6
	s-35.499-30.901-63.399-30.901c0-27.9-11.102-50.999-30.901-62.399s-45.3-9.6-69.6,4.499C300.099,14.299,278.8,0.1,256,0.1
	s-44.099,14.199-57.9,38.499C173.8,24.5,148.299,22.7,128.5,34.1S97.599,68.599,97.599,96.499c-27.9,0-51.999,11.102-63.399,30.901
	s-9.6,46.3,4.499,70.6C14.399,211.799,0,233.1,0,255.9s14.399,44.099,38.699,57.9C24.6,338.1,22.8,363.599,34.2,383.4
	c11.4,19.799,35.499,31.899,63.399,31.899c0,27.9,11.102,51,30.901,62.401s45.3,9.6,69.6-4.501
	c13.801,24.3,35.099,38.701,57.9,38.701s44.099-14.401,57.9-38.701c24.3,14.101,49.801,15.901,69.6,4.501
	s30.901-34.501,30.901-62.401c27.9,0,51.999-12.1,63.399-31.899c11.4-19.801,9.6-45.3-4.499-69.6
	C497.601,299.999,512,278.7,512,255.9z"/>
<path style="fill:#C5C9F7;" d="M473.301,313.8c14.099,24.3,15.899,49.799,4.499,69.6c-11.4,19.799-35.499,31.899-63.399,31.899
	c0,27.9-11.102,51-30.901,62.401s-45.3,9.6-69.6-4.501c-13.801,24.3-35.1,38.701-57.9,38.701V0.1c22.8,0,44.099,14.199,57.9,38.499
	C338.2,24.5,363.701,22.7,383.5,34.1s30.901,34.499,30.901,62.399c27.9,0,51.999,11.102,63.399,30.901s9.6,46.3-4.499,70.6
	c24.3,13.799,38.699,35.1,38.699,57.9S497.601,299.999,473.301,313.8z"/>
<path style="fill:#FD4E26;" d="M400.901,218.4c0,83.399-63.6,152.399-144.901,160.199c-5.4,0.601-10.499,0.901-15.901,0.901
	c-72.9,0-131.999-59.101-131.999-132.001c0-59.7,48.9-109.3,108.6-109.3c14.099,0,27.599,4.3,39.3,10.3
	c29.7,14.399,50.4,45,50.4,80.4c0,33.001-21.301,60.601-50.4,70.501c-7.5,2.699-15.601,4.199-24.3,4.199
	c-34.799,0-62.999-28.2-62.999-62.699c0-29.401,24-53.401,53.399-53.401c8.101,0,15,6.901,15,15c0,8.401-6.899,15-15,15
	c-12.9,0-23.399,10.501-23.399,23.401c0,17.999,14.7,32.699,32.999,32.699c9,0,17.401-2.699,24.3-7.5
	c12.299-7.8,20.4-21.599,20.4-37.2c0-17.999-7.8-34.2-20.4-45c-10.499-9.3-24.3-14.7-39.3-14.7c-43.2,0-78.6,35.099-78.6,78.3
	c0,56.1,45.899,102.001,101.999,102.001c5.402,0,10.801-0.3,15.901-0.901c64.501-8.099,114.901-63.3,114.901-130.199
	c0-8.401,6.899-15,15-15C394.3,203.4,400.901,209.999,400.901,218.4z"/>
<g>
	<path style="fill:#FD3018;" d="M400.901,218.4c0,83.399-63.6,152.399-144.901,160.199v-30
		c64.501-8.099,114.901-63.3,114.901-130.199c0-8.401,6.899-15,15-15C394.3,203.4,400.901,209.999,400.901,218.4z"/>
	<path style="fill:#FD3018;" d="M306.4,228.899c0,33.001-21.301,60.601-50.4,70.501v-33.301c12.299-7.8,20.4-21.599,20.4-37.2
		c0-17.999-7.8-34.2-20.4-45v-35.4C285.7,162.899,306.4,193.499,306.4,228.899z"/>
</g>
<g>
</g>
<g>
</g>
<g>
</g>
<g>
</g>
<g>
</g>
<g>
</g>
<g>
</g>
<g>
</g>
<g>
</g>
<g>
</g>
<g>
</g>
<g>
</g>
<g>
</g>
<g>
</g>
<g>
</g>
</svg>
