<?xml version="1.0" encoding="iso-8859-1"?>
<!-- Generator: Adobe Illustrator 19.0.0, SVG Export Plug-In . SVG Version: 6.00 Build 0)  -->
<svg version="1.1" id="Capa_1" xmlns="http://www.w3.org/2000/svg" xmlns:xlink="http://www.w3.org/1999/xlink" x="0px" y="0px"
	 viewBox="0 0 512 512" style="enable-background:new 0 0 512 512;" xml:space="preserve">
<path style="fill:#D9CCBC;" d="M460.329,310.767c-2.023,7.586,1.455,17.454,6.007,27.735c7.411,16.793,17.671,34.681,11.395,45.529
	c-10.27,17.743-57.802,7.112-72.19,21.511c-14.399,14.399-3.767,61.93-21.51,72.19c-17.485,10.115-53.291-22.739-73.264-17.402
	C291.466,465.49,276.933,512,256,512s-35.466-46.51-54.767-51.671c-19.973-5.336-55.779,27.518-73.264,17.402
	c-17.743-10.27-7.112-57.802-21.511-72.19c-14.399-14.399-61.93-3.767-72.19-21.511c-6.276-10.838,3.974-28.725,11.395-45.519
	c4.552-10.28,8.03-20.158,6.007-27.745C46.51,291.466,0,276.933,0,256s46.51-35.466,51.671-54.767
	c5.336-19.973-27.518-55.779-17.402-73.264c10.27-17.743,57.802-7.112,72.19-21.511c14.399-14.399,3.767-61.93,21.511-72.19
	c17.485-10.115,53.291,22.739,73.264,17.402C220.534,46.51,235.067,0,256,0s35.466,46.51,54.767,51.671
	c19.973,5.336,55.779-27.518,73.264-17.402c17.743,10.27,7.112,57.802,21.51,72.19c14.399,14.399,61.931,3.767,72.19,21.511
	c10.115,17.485-22.739,53.291-17.402,73.264C465.49,220.534,512,235.068,512,256C512,276.933,465.49,291.466,460.329,310.767z"/>
<path style="fill:#EBE5DD;" d="M512,256c0,20.933-46.51,35.466-51.671,54.767c-2.023,7.586,1.455,17.454,6.007,27.735
	c-18.135,6.141-49.565,2.126-60.795,13.367c-14.399,14.399-3.767,61.93-21.51,72.19c-17.485,10.115-53.291-22.739-73.264-17.402
	c-19.302,5.161-33.835,51.671-54.767,51.671s-35.466-46.51-54.767-51.671c-19.973-5.336-55.779,27.518-73.264,17.402
	c-17.743-10.27-7.112-57.802-21.511-72.19c-11.24-11.24-42.66-7.225-60.795-13.356c4.552-10.28,8.03-20.158,6.007-27.745
	C46.51,291.466,0,276.933,0,256s46.51-35.466,51.671-54.767c5.336-19.973-27.518-55.779-17.402-73.264
	c10.27-17.743,57.802-7.112,72.19-21.511c14.399-14.399,3.767-61.93,21.511-72.19c17.485-10.115,53.291,22.739,73.264,17.402
	C220.534,46.51,235.067,0,256,0s35.466,46.51,54.767,51.671c19.973,5.336,55.779-27.518,73.264-17.402
	c17.743,10.27,7.112,57.802,21.51,72.19c14.399,14.399,61.931,3.767,72.19,21.511c10.115,17.485-22.739,53.291-17.402,73.264
	C465.49,220.535,512,235.068,512,256z"/>
<g>
	<path style="fill:#FF0C38;" d="M323.121,371.128c-7.03,1.026-14.201,1.546-21.312,1.546c-38.944,0-75.628-15.099-103.294-42.515
		c-22.124-21.922-34.306-51.151-34.306-82.299c0-30.747,11.921-59.708,33.565-81.547c17.246-17.401,40.236-26.986,64.738-26.986
		c19.915,0,39.55,6.632,55.288,18.674c3.396,2.599,8.254,1.952,10.852-1.443c2.599-3.396,1.953-8.254-1.443-10.852
		c-18.424-14.097-41.401-21.861-64.698-21.861c-28.663,0-55.56,11.211-75.735,31.57c-24.537,24.758-38.05,57.589-38.05,92.445
		c0,35.312,13.812,68.446,38.891,93.297c30.584,30.309,71.139,47.001,114.193,47.001c7.857,0,15.78-0.575,23.548-1.707
		c4.231-0.618,7.16-4.548,6.543-8.779C331.283,373.44,327.354,370.523,323.121,371.128z"/>
	<path style="fill:#FF0C38;" d="M350.033,170.292c-2.272-3.622-7.052-4.715-10.672-2.44c-3.622,2.273-4.714,7.051-2.44,10.672
		c7.113,11.33,10.871,24.434,10.87,37.896c0,18.939-7.342,36.777-20.673,50.23c-10.511,10.605-24.521,16.446-39.453,16.446
		c-14.739,0-28.623-5.714-39.095-16.091c-8.188-8.114-12.698-18.933-12.698-30.463c0-11.379,4.412-22.1,12.423-30.185
		c6.199-6.256,14.464-9.7,23.271-9.7c8.694,0,16.882,3.371,23.057,9.491c3.038,3.009,7.938,2.988,10.948-0.05
		c3.009-3.036,2.988-7.937-0.049-10.947c-9.094-9.012-21.153-13.977-33.956-13.977c-12.969,0-25.14,5.073-34.269,14.286
		c-10.903,11.004-16.908,25.595-16.908,41.083c0,15.691,6.137,30.415,17.282,41.459c13.39,13.269,31.145,20.576,49.993,20.576
		c19.093,0,37.01-7.468,50.45-21.03c16.225-16.37,25.159-38.08,25.159-61.127C363.275,200.042,358.696,184.091,350.033,170.292z"/>
</g>
<g>
</g>
<g>
</g>
<g>
</g>
<g>
</g>
<g>
</g>
<g>
</g>
<g>
</g>
<g>
</g>
<g>
</g>
<g>
</g>
<g>
</g>
<g>
</g>
<g>
</g>
<g>
</g>
<g>
</g>
</svg>
