<?xml version="1.0" standalone="no"?>
<!DOCTYPE svg PUBLIC "-//W3C//DTD SVG 20010904//EN"
 "http://www.w3.org/TR/2001/REC-SVG-20010904/DTD/svg10.dtd">
<svg version="1.0" xmlns="http://www.w3.org/2000/svg"
 width="733.000000pt" height="649.000000pt" viewBox="0 0 733.000000 649.000000"
 preserveAspectRatio="xMidYMid meet">

<g transform="translate(0.000000,649.000000) scale(0.100000,-0.100000)"
fill="#000000" stroke="none">
<path d="M0 3245 l0 -3245 3665 0 3665 0 0 3245 0 3245 -3665 0 -3665 0 0
-3245z m3457 3161 c4 -3 -104 -5 -239 -4 -135 2 -244 7 -241 12 6 9 470 2 480
-8z m448 -16 c101 -6 95 -7 -80 -7 -104 -1 -228 2 -275 6 -74 7 -63 8 80 8 91
0 215 -3 275 -7z m448 -30 c23 -9 -26 -7 -208 10 -77 8 -70 8 48 4 76 -3 148
-9 160 -14z m-1644 6 c-11 -9 -69 -15 -64 -6 3 6 20 10 37 10 17 0 29 -2 27
-4z m-114 -26 c-28 -12 -37 -12 -30 0 3 6 16 10 28 9 21 0 21 -1 2 -9z m1898
-7 c-7 -2 -21 -2 -30 0 -10 3 -4 5 12 5 17 0 24 -2 18 -5z m60 -10 c-7 -2 -19
-2 -25 0 -7 3 -2 5 12 5 14 0 19 -2 13 -5z m44 -9 c-3 -3 -12 -4 -19 -1 -8 3
-5 6 6 6 11 1 17 -2 13 -5z m200 0 c-3 -3 -12 -4 -19 -1 -8 3 -5 6 6 6 11 1
17 -2 13 -5z m-2412 -14 c-3 -5 -10 -10 -16 -10 -5 0 -9 5 -9 10 0 6 7 10 16
10 8 0 12 -4 9 -10z m-148 -36 c-3 -3 -12 -4 -19 -1 -8 3 -5 6 6 6 11 1 17 -2
13 -5z m1685 -19 c162 -15 258 -27 353 -46 28 -5 104 -19 170 -30 66 -11 183
-32 260 -46 77 -13 167 -28 200 -33 75 -10 166 -33 225 -55 25 -9 54 -19 65
-22 31 -9 384 -192 445 -231 123 -78 573 -436 694 -552 49 -47 110 -117 136
-156 63 -95 168 -307 210 -424 6 -19 16 -44 20 -55 59 -147 32 -555 -46 -708
-50 -97 -394 -468 -594 -641 -175 -151 -368 -258 -750 -412 -74 -30 -144 -59
-155 -64 -43 -19 -217 -80 -253 -89 -177 -45 -189 -47 -482 -96 -52 -9 -120
-20 -150 -26 -155 -28 -259 -33 -412 -20 -84 7 -241 16 -348 20 -181 7 -660
43 -740 56 -173 29 -272 47 -430 79 -69 14 -174 35 -235 47 -60 12 -119 25
-130 29 -11 4 -47 13 -80 20 -61 12 -232 67 -250 79 -5 4 -32 16 -60 26 -27
10 -72 28 -100 40 -27 12 -90 39 -140 61 -181 78 -305 146 -431 237 -208 151
-335 270 -412 387 -31 47 -73 105 -93 130 -21 25 -53 77 -72 115 -33 69 -41
90 -67 170 -7 22 -23 63 -36 91 -30 68 -42 190 -33 334 11 167 45 280 142 480
119 246 178 323 376 488 197 166 391 283 591 358 52 20 104 40 115 44 11 5 45
16 75 25 30 9 64 20 75 25 22 9 273 92 400 132 109 34 145 43 253 63 52 10
113 28 135 40 102 57 239 84 606 120 85 8 157 17 159 20 12 12 641 4 794 -10z
m986 8 c-10 -2 -26 -2 -35 0 -10 3 -2 5 17 5 19 0 27 -2 18 -5z m-2768 -7 c0
-2 -7 -7 -16 -10 -8 -3 -12 -2 -9 4 6 10 25 14 25 6z m-40 -14 c0 -5 -17 -16
-37 -26 -39 -19 -230 -77 -248 -75 -11 1 49 22 147 50 37 10 82 27 100 38 40
24 38 23 38 13z m2919 -28 c14 -12 -19 -1 -35 12 -18 14 -18 14 6 3 14 -6 27
-13 29 -15z m46 -14 c8 -13 -5 -13 -25 0 -13 8 -13 10 2 10 9 0 20 -4 23 -10z
m65 -26 l25 -15 -25 7 c-14 3 -32 10 -40 15 -13 7 -13 8 0 8 8 0 26 -6 40 -15z
m60 -24 c8 -5 11 -10 5 -10 -5 0 -17 5 -25 10 -8 5 -10 10 -5 10 6 0 17 -5 25
-10z m-3425 -30 c-22 -10 -44 -18 -50 -18 -5 0 8 8 30 19 22 10 45 18 50 18 6
0 -8 -9 -30 -19z m3530 -21 c6 -6 -8 -3 -30 6 -22 9 -44 21 -50 27 -5 5 8 2
30 -7 22 -9 45 -21 50 -26z m51 -25 c18 -14 18 -14 -6 -3 -31 14 -36 19 -24
19 6 0 19 -7 30 -16z m-3871 -94 c-3 -5 -12 -10 -18 -10 -7 0 -6 4 3 10 19 12
23 12 15 0z m-39 -19 c-6 -9 -46 -22 -46 -15 0 3 10 9 23 14 29 11 29 11 23 1z
m4190 -39 c-4 -3 -14 2 -24 12 -16 18 -16 18 6 6 13 -6 21 -14 18 -18z m-4247
14 c-2 -2 -20 -11 -39 -20 l-35 -17 25 20 c14 11 31 21 39 21 8 0 12 -2 10 -4z
m4406 -97 c5 -5 6 -9 1 -9 -10 0 -146 81 -146 87 0 5 130 -65 145 -78z m-4775
-64 c0 -2 -10 -9 -22 -15 -22 -11 -22 -10 -4 4 21 17 26 19 26 11z m5025 -116
c16 -19 13 -18 -17 5 -21 16 -38 30 -38 33 0 8 36 -16 55 -38z m92 -71 c3 -7
-8 -2 -25 10 -17 13 -35 28 -39 34 -3 7 8 2 25 -10 17 -13 35 -28 39 -34z
m-5347 38 c0 -2 -12 -12 -27 -21 l-28 -18 19 21 c17 20 36 29 36 18z m5410
-97 c3 -3 10 -8 17 -10 16 -6 115 -100 110 -106 -3 -2 -22 12 -43 32 -22 19
-60 52 -86 73 -26 20 -47 41 -48 46 0 8 35 -17 50 -35z m-5737 -191 c-129
-134 -145 -151 -128 -128 24 32 158 170 164 170 3 0 -13 -19 -36 -42z m5918
25 c13 -16 12 -17 -3 -4 -10 7 -18 15 -18 17 0 8 8 3 21 -13z m59 -48 c19 -19
32 -35 29 -35 -3 0 -20 16 -39 35 -19 19 -32 35 -29 35 3 0 20 -16 39 -35z
m-6267 -432 c-19 -74 -27 -82 -18 -18 8 63 12 75 24 75 5 0 2 -26 -6 -57z
m-32 -133 l-9 -45 -1 37 c-1 20 2 44 6 54 11 29 14 2 4 -46z m6693 -95 c3 -25
3 -33 -3 -20 -15 36 -23 81 -13 70 5 -5 12 -28 16 -50z m-6715 -25 c-6 -36
-13 -67 -16 -70 -6 -5 5 93 14 123 11 39 12 8 2 -53z m6739 -100 l0 -25 -8 25
c-4 14 -8 36 -8 50 l0 25 8 -25 c4 -14 8 -36 8 -50z m-6763 -302 c0 -217 8
-368 30 -578 4 -38 3 -41 -4 -15 -33 106 -57 845 -28 845 1 0 2 -114 2 -252z
m6783 152 c1 -23 0 -23 -8 -5 -5 11 -8 34 -8 50 0 29 0 29 8 5 4 -14 8 -36 8
-50z m-1 -52 c-3 -8 -6 -5 -6 6 -1 11 2 17 5 13 3 -3 4 -12 1 -19z m0 -140
c-2 -18 -4 -6 -4 27 0 33 2 48 4 33 2 -15 2 -42 0 -60z m-6627 -234 c0 -33
139 -265 197 -329 10 -11 30 -36 44 -55 41 -55 207 -219 289 -286 74 -61 223
-163 290 -200 19 -10 37 -22 40 -25 7 -7 274 -140 325 -161 22 -9 60 -24 85
-33 25 -10 59 -23 77 -31 17 -8 35 -14 41 -14 5 0 31 -9 58 -19 27 -11 76 -27
109 -36 33 -9 69 -21 80 -25 11 -5 52 -16 90 -25 39 -9 86 -20 105 -25 19 -5
78 -16 130 -25 52 -9 111 -20 131 -26 20 -5 48 -9 63 -9 14 0 45 -4 68 -10 24
-5 88 -17 143 -26 55 -8 120 -20 144 -25 25 -6 133 -15 240 -20 108 -5 223
-14 256 -20 139 -24 861 -38 1000 -19 69 10 93 14 270 45 50 9 115 20 145 25
87 15 152 29 190 40 90 26 207 62 225 69 11 5 40 16 65 26 25 9 53 21 62 26
10 5 22 9 28 9 5 0 33 11 62 24 29 13 89 39 133 56 253 102 504 238 625 336
87 72 373 356 491 489 24 27 59 65 77 85 l32 35 -6 -50 c-8 -61 -20 -86 -76
-156 -24 -30 -64 -86 -89 -124 -25 -39 -79 -99 -118 -135 -40 -36 -132 -123
-203 -194 -117 -115 -227 -206 -249 -206 -5 0 -33 -16 -63 -35 -30 -19 -57
-35 -60 -35 -2 0 -36 -18 -75 -40 -38 -22 -87 -49 -108 -61 -202 -114 -328
-168 -495 -210 -21 -5 -55 -13 -75 -19 -21 -5 -74 -15 -118 -21 -109 -16 -163
-24 -280 -44 -209 -35 -291 -46 -480 -64 -66 -6 -163 -16 -215 -21 -119 -13
-379 -13 -451 -1 -30 5 -119 14 -199 20 -320 23 -387 30 -435 40 -27 6 -88 18
-135 26 -47 9 -105 20 -130 25 -25 5 -85 16 -135 25 -49 9 -110 20 -135 25
-50 9 -186 34 -270 49 -53 9 -163 42 -205 61 -11 4 -42 16 -70 25 -27 10 -59
21 -70 25 -11 4 -42 16 -70 25 -27 9 -63 23 -80 30 -16 7 -41 16 -55 20 -14 4
-38 13 -55 20 -16 7 -46 18 -65 25 -65 24 -245 113 -310 153 -61 38 -224 157
-286 209 -111 93 -190 167 -242 225 -70 80 -152 187 -178 235 -11 18 -22 35
-26 38 -3 3 -34 59 -67 125 -47 92 -61 130 -61 164 0 37 2 42 15 31 8 -7 15
-18 15 -26z m6570 -31 c-11 -17 -11 -17 -6 0 3 10 6 24 7 30 0 9 2 9 5 0 3 -7
0 -20 -6 -30z m-15 -83 c-4 -17 -9 -29 -12 -26 -3 2 -2 19 2 36 4 17 9 29 12
26 3 -2 2 -19 -2 -36z m-21 -107 c-4 -32 -11 -62 -16 -68 -7 -7 -8 0 -4 20 3
17 8 47 12 68 10 57 15 44 8 -20z m-35 -167 c-9 -8 -10 -5 -5 14 3 14 6 32 7
40 1 8 4 2 6 -14 3 -16 -1 -34 -8 -40z m-6339 -85 c19 -24 41 -53 49 -66 15
-23 218 -226 281 -280 194 -166 464 -321 790 -453 268 -108 478 -167 765 -217
186 -32 211 -37 250 -45 40 -9 140 -28 265 -49 309 -52 814 -80 1128 -62 246
13 337 23 647 71 33 5 105 16 160 25 182 27 271 47 450 98 93 27 236 87 399
167 375 183 428 221 716 509 130 130 250 254 267 276 17 22 34 37 38 33 11
-10 -25 -273 -56 -408 -76 -330 -235 -684 -435 -968 -24 -35 -44 -67 -44 -72
0 -4 -4 -10 -8 -12 -8 -3 -202 -319 -211 -343 -2 -5 -28 -40 -57 -76 -73 -89
-163 -172 -309 -284 -118 -90 -234 -164 -315 -202 -112 -52 -133 -61 -195 -83
-33 -12 -69 -25 -80 -30 -11 -5 -47 -16 -80 -25 -33 -9 -71 -21 -85 -25 -43
-14 -200 -38 -325 -50 -114 -11 -229 -28 -340 -51 -85 -17 -310 -24 -525 -17
-361 13 -1017 54 -1070 68 -19 4 -60 14 -90 21 -178 39 -358 117 -600 260 -69
41 -142 83 -163 94 -44 23 -200 138 -267 198 -243 215 -416 426 -579 707 -62
107 -219 437 -276 580 -105 263 -142 383 -165 535 -5 33 -15 98 -23 145 -7 46
-11 98 -9 114 l5 30 31 -35 c17 -19 47 -54 66 -78z m-273 77 c-3 -8 -6 -5 -6
6 -1 11 2 17 5 13 3 -3 4 -12 1 -19z m6530 -470 c-3 -8 -6 -5 -6 6 -1 11 2 17
5 13 3 -3 4 -12 1 -19z m-6372 -48 c5 -16 4 -22 -3 -15 -5 6 -12 24 -16 40 -7
34 7 15 19 -25z m6354 -24 c-9 -8 -10 -7 -5 7 3 10 7 26 7 35 1 9 4 6 6 -7 3
-13 -1 -28 -8 -35z m-6304 -106 c4 -14 4 -21 -1 -17 -10 10 -44 98 -43 112 0
11 32 -57 44 -95z m6286 29 c-6 -24 -9 -28 -10 -12 -1 24 9 56 16 50 2 -3 0
-20 -6 -38z m-6267 -74 c3 -8 1 -15 -4 -15 -6 0 -10 7 -10 15 0 8 2 15 4 15 2
0 6 -7 10 -15z m34 -87 c12 -27 18 -48 13 -48 -6 0 -15 21 -39 90 -11 30 6 4
26 -42z m6154 -100 c-8 -8 -9 -4 -5 13 4 13 8 18 11 10 2 -7 -1 -18 -6 -23z
m-16 -54 c-4 -9 -9 -15 -11 -12 -3 3 -3 13 1 22 4 9 9 15 11 12 3 -3 3 -13 -1
-22z m-23 -52 c-3 -12 -9 -22 -14 -22 -5 0 -3 11 3 25 13 30 20 28 11 -3z
m-37 -74 c-28 -45 -77 -133 -83 -150 -3 -10 -9 -18 -14 -18 -5 0 7 28 26 63
20 34 46 81 58 105 12 24 23 39 25 33 2 -5 -3 -20 -12 -33z m-5956 -1 c0 -5
-4 -5 -10 -2 -5 3 -10 14 -10 23 0 15 2 15 10 2 5 -8 10 -19 10 -23z m46 -114
c-6 -6 -31 43 -40 77 -4 14 5 3 19 -24 14 -27 24 -51 21 -53z m24 -34 c0 -6
-4 -7 -10 -4 -5 3 -10 11 -10 16 0 6 5 7 10 4 6 -3 10 -11 10 -16z m19 -51 c6
-18 7 -28 2 -23 -10 12 -25 55 -18 55 3 0 10 -15 16 -32z m50 -98 c11 -24 11
-24 -3 -6 -9 11 -16 24 -16 30 0 12 5 7 19 -24z m25 -46 c3 -8 2 -12 -4 -9 -6
3 -10 10 -10 16 0 14 7 11 14 -7z m5579 -49 c-3 -9 -8 -14 -10 -11 -3 3 -2 9
2 15 9 16 15 13 8 -4z m-5529 -41 c3 -8 2 -12 -4 -9 -6 3 -10 10 -10 16 0 14
7 11 14 -7z m26 -49 c14 -19 14 -19 -2 -6 -10 7 -18 18 -18 24 0 6 1 8 3 6 1
-2 9 -13 17 -24z m5420 -59 c-30 -49 -37 -46 -9 4 12 22 25 38 27 35 2 -2 -6
-20 -18 -39z m-5299 -109 l22 -32 -32 32 c-17 18 -31 35 -31 38 0 12 19 -6 41
-38z m44 -57 c10 -11 16 -20 13 -20 -3 0 -13 9 -23 20 -10 11 -16 20 -13 20 3
0 13 -9 23 -20z m106 -127 c13 -16 12 -17 -3 -4 -10 7 -18 15 -18 17 0 8 8 3
21 -13z m4873 -101 c3 -5 -1 -9 -9 -9 -8 0 -12 4 -9 9 3 4 7 8 9 8 2 0 6 -4 9
-8z m-4669 -122 c10 -11 16 -20 13 -20 -3 0 -13 9 -23 20 -10 11 -16 20 -13
20 3 0 13 -9 23 -20z m4556 -8 c-9 -18 -105 -104 -151 -135 -62 -42 -72 -47
-35 -16 22 18 72 64 110 101 70 68 94 84 76 50z m-4490 -49 l34 -37 -37 30
c-20 16 -37 32 -37 37 -2 12 4 8 40 -30z m64 -53 c3 -6 -1 -7 -9 -4 -18 7 -21
14 -7 14 6 0 13 -4 16 -10z m4148 -133 c-71 -66 -94 -83 -128 -91 -28 -7 -28
-6 11 21 23 15 59 42 79 58 21 17 47 37 59 47 40 31 27 10 -21 -35z m-3953 7
c0 -2 -9 0 -20 6 -11 6 -20 13 -20 16 0 2 9 0 20 -6 11 -6 20 -13 20 -16z
m185 -114 c3 -5 1 -10 -4 -10 -6 0 -11 5 -11 10 0 6 2 10 4 10 3 0 8 -4 11
-10z m545 -183 c205 -57 210 -58 455 -67 132 -5 283 -14 335 -19 153 -17 383
-33 555 -38 155 -5 266 5 545 47 30 5 116 16 191 24 75 9 143 18 152 22 22 8
22 -14 0 -46 -73 -111 -253 -222 -411 -255 -18 -4 -74 -20 -125 -36 -97 -31
-172 -45 -327 -59 -52 -5 -153 -16 -225 -25 -220 -27 -263 -28 -368 -16 -248
30 -381 68 -562 158 -146 74 -288 198 -324 284 l-21 51 38 -5 c20 -3 62 -12
92 -20z m2650 -2 c0 -2 -10 -9 -22 -15 -22 -11 -22 -10 -4 4 21 17 26 19 26
11z m-2708 -177 c137 -132 398 -260 613 -302 44 -8 109 -21 145 -28 82 -16
383 -17 510 0 52 6 156 19 230 27 74 9 146 20 160 25 14 4 63 19 110 33 47 13
112 32 145 42 73 21 178 73 265 130 68 46 96 69 196 166 34 32 64 59 68 59 15
0 4 -54 -18 -88 -37 -60 -164 -190 -230 -236 -149 -106 -387 -203 -621 -253
-38 -8 -88 -19 -110 -25 -109 -26 -281 -47 -395 -47 -121 -1 -339 20 -410 39
-393 104 -609 251 -743 504 -46 87 -51 134 -6 61 17 -27 58 -76 91 -107z
m-121 -80 c17 -24 18 -29 6 -19 -18 14 -42 51 -33 51 3 0 15 -15 27 -32z m134
-168 c10 -11 16 -20 13 -20 -3 0 -13 9 -23 20 -10 11 -16 20 -13 20 3 0 13 -9
23 -20z m295 -236 c0 -2 -9 0 -20 6 -11 6 -20 13 -20 16 0 2 9 0 20 -6 11 -6
20 -13 20 -16z m1495 6 c-11 -5 -27 -9 -35 -9 -13 -1 -13 0 0 9 8 5 24 9 35 9
l20 0 -20 -9z m-1460 -20 c3 -5 -1 -10 -9 -10 -9 0 -16 5 -16 10 0 6 4 10 9
10 6 0 13 -4 16 -10z m1395 0 c-8 -5 -19 -10 -25 -10 -5 0 -3 5 5 10 8 5 20
10 25 10 6 0 3 -5 -5 -10z m-882 -97 c-16 -2 -40 -2 -55 0 -16 2 -3 4 27 4 30
0 43 -2 28 -4z"/>
<path d="M3688 6124 c-5 -5 -85 -19 -258 -45 -36 -5 -121 -12 -190 -14 -69 -3
-174 -11 -235 -19 -60 -8 -175 -20 -255 -26 -190 -14 -347 -37 -440 -62 -41
-11 -98 -24 -126 -28 -28 -4 -66 -16 -85 -26 -37 -19 -79 -31 -149 -44 -327
-58 -475 -129 -790 -380 -131 -104 -240 -208 -240 -229 0 -5 -29 -41 -65 -81
-250 -271 -357 -586 -300 -881 37 -197 124 -366 293 -573 148 -181 245 -266
382 -337 36 -18 131 -74 211 -125 140 -87 225 -132 353 -189 58 -26 354 -127
471 -160 33 -10 78 -23 100 -30 50 -16 232 -59 305 -73 155 -29 198 -35 360
-45 280 -17 668 -15 860 6 266 30 316 35 485 52 210 21 352 43 415 64 14 5 59
19 100 31 41 12 95 31 120 43 25 11 72 32 105 47 56 25 170 76 275 122 25 11
72 39 105 63 125 88 303 203 370 240 190 103 241 164 416 496 97 186 102 198
112 283 15 122 -2 284 -42 391 -80 223 -98 256 -201 375 -31 36 -95 119 -143
186 -129 181 -310 340 -494 433 -34 17 -104 56 -155 87 -170 104 -269 149
-483 218 -115 38 -219 72 -230 77 -24 9 -263 72 -360 94 -38 9 -88 20 -110 25
-119 28 -224 40 -347 40 -74 0 -137 -3 -140 -6z m919 -210 c-3 -3 -12 -4 -19
-1 -8 3 -5 6 6 6 11 1 17 -2 13 -5z m-1903 -850 c166 -42 424 -156 494 -217
20 -19 54 -46 76 -62 21 -16 50 -47 65 -70 24 -36 26 -49 26 -140 0 -106 -13
-143 -68 -203 -30 -32 -181 -124 -242 -148 -78 -30 -177 -26 -241 9 -28 16
-62 38 -75 50 -13 12 -53 45 -88 72 -100 78 -178 154 -205 199 -76 129 -86
272 -27 386 18 36 43 76 55 89 46 52 120 63 230 35z m2103 9 c-20 -2 -52 -2
-70 0 -17 2 0 4 38 4 39 0 53 -2 32 -4z m-998 -14 c121 -20 273 -76 376 -138
128 -77 240 -217 280 -348 5 -18 -3 -33 -38 -70 -24 -27 -53 -68 -65 -93 -35
-73 -135 -121 -280 -135 -199 -20 -415 83 -488 231 -46 95 -84 474 -51 517 13
17 109 44 166 46 19 1 64 -4 100 -10z m841 -24 c34 -18 99 -110 123 -175 9
-25 21 -83 27 -130 6 -47 15 -100 20 -117 4 -18 5 -33 1 -33 -20 0 -81 97 -81
129 0 31 -32 115 -57 149 -30 40 -78 66 -108 58 -13 -3 -48 -33 -78 -67 -31
-34 -60 -58 -65 -55 -17 10 -23 56 -11 79 35 66 152 177 186 177 8 0 27 -7 43
-15z m165 -51 c14 -15 25 -34 25 -43 0 -10 4 -21 9 -26 33 -37 57 -235 29
-235 -10 0 -93 227 -116 318 -6 22 28 13 53 -14z m150 -46 c14 -16 25 -40 25
-52 0 -28 -34 -60 -55 -52 -19 7 -42 59 -51 115 l-7 41 32 -11 c17 -6 42 -24
56 -41z m-660 -28 c3 -5 1 -10 -4 -10 -6 0 -11 5 -11 10 0 6 2 10 4 10 3 0 8
-4 11 -10z m-2992 -7 c-7 -2 -19 -2 -25 0 -7 3 -2 5 12 5 14 0 19 -2 13 -5z
m3333 -45 c27 -31 40 -61 65 -148 11 -41 23 -84 26 -95 4 -11 17 -37 30 -57
28 -45 29 -65 5 -96 -15 -19 -20 -21 -29 -10 -27 34 -64 121 -87 206 -15 56
-32 99 -43 107 -30 24 -59 17 -92 -20 -33 -38 -41 -42 -41 -22 0 64 71 157
119 157 16 0 36 -10 47 -22z m-3006 -18 c180 -30 261 -55 392 -121 132 -66
235 -146 308 -239 72 -93 76 -123 30 -265 -38 -116 -60 -148 -135 -202 -108
-78 -101 -76 -239 -62 -66 8 -189 14 -272 15 l-152 1 -42 33 c-53 42 -165 169
-219 249 -128 187 -162 368 -94 492 30 56 59 76 148 101 80 22 137 22 275 -2z
m3510 -17 c68 -46 46 -77 -70 -98 -36 -7 -73 -16 -83 -20 -16 -7 -18 -3 -15
31 3 42 6 43 93 33 28 -4 30 -2 33 34 4 42 8 44 42 20z m140 -53 c0 -9 6 -22
13 -29 10 -11 9 -13 -2 -9 -25 7 -54 55 -47 75 7 17 8 17 22 -1 8 -11 14 -27
14 -36z m-3203 34 c-3 -3 -12 -4 -19 -1 -8 3 -5 6 6 6 11 1 17 -2 13 -5z
m1288 -24 c3 -5 1 -10 -4 -10 -6 0 -11 5 -11 10 0 6 2 10 4 10 3 0 8 -4 11
-10z m1232 -111 c25 -48 48 -153 38 -169 -3 -6 -20 -17 -37 -26 -28 -15 -33
-14 -64 2 -40 22 -46 60 -14 89 17 15 19 26 14 71 -5 37 -3 58 6 69 19 23 32
15 57 -36z m637 26 c17 -13 17 -15 3 -21 -23 -8 -47 2 -47 21 0 19 19 19 44 0z
m-2876 -73 c25 -78 26 -82 12 -82 -20 0 -60 53 -60 79 0 33 10 71 19 71 4 0
17 -31 29 -68z m2752 38 c13 -9 13 -10 -1 -10 -8 0 -31 -14 -49 -30 -31 -28
-34 -36 -34 -85 0 -61 -8 -67 -50 -34 l-26 20 27 52 c44 87 52 97 87 97 17 0
38 -5 46 -10z m-4139 -116 c15 -225 69 -404 143 -473 21 -20 26 -33 26 -76 0
-28 -5 -56 -11 -62 -5 -5 -11 -48 -12 -95 -2 -78 0 -88 24 -119 15 -19 44 -43
65 -54 22 -11 62 -35 91 -53 69 -45 107 -31 126 49 16 65 115 32 160 -53 15
-30 27 -61 27 -70 0 -30 -40 -48 -106 -48 -60 0 -63 -1 -83 -35 -29 -50 -59
-47 -110 12 -34 41 -45 47 -78 48 -35 0 -39 3 -60 47 -30 64 -59 95 -101 109
-41 14 -65 61 -55 110 5 28 2 35 -27 59 -32 26 -33 28 -17 51 21 29 22 49 3
49 -7 0 -19 6 -25 14 -10 12 -8 16 11 21 57 16 68 27 68 69 0 36 -5 44 -34 63
-72 47 -94 99 -150 363 -25 117 -23 134 22 153 41 18 72 26 87 22 6 -1 13 -46
16 -101z m3935 29 c-11 -11 -19 6 -11 24 8 17 8 17 12 0 3 -10 2 -21 -1 -24z
m373 -18 l34 -49 -22 -38 c-16 -29 -20 -47 -15 -73 6 -32 4 -35 -19 -35 -14 0
-35 8 -47 18 -24 19 -23 23 29 121 15 28 16 40 7 65 -6 17 -15 35 -21 39 -6 5
-4 7 5 5 8 -3 30 -26 49 -53z m-104 19 c14 -9 25 -21 25 -27 0 -15 -51 -67
-66 -67 -16 0 -54 78 -47 96 7 19 58 18 88 -2z m252 -113 c-3 -20 -8 -48 -12
-63 -5 -20 -1 -35 15 -57 27 -38 20 -51 -24 -44 -34 5 -37 4 -91 -60 -17 -19
-47 -16 -99 10 -28 14 -30 14 -58 -16 -16 -17 -30 -31 -32 -31 -6 0 -46 37
-46 42 0 3 25 18 55 32 30 15 57 31 60 36 3 5 19 7 35 3 58 -11 77 2 95 64 10
32 24 72 31 90 29 66 80 61 71 -6z m163 49 c0 -5 -2 -10 -4 -10 -3 0 -8 5 -11
10 -3 6 -1 10 4 10 6 0 11 -4 11 -10z m-660 -48 c25 -20 20 -42 -9 -42 -16 0
-51 38 -51 55 0 12 40 4 60 -13z m658 -28 c7 -2 12 -20 12 -43 0 -34 -4 -41
-31 -53 -27 -11 -29 -17 -24 -44 4 -25 0 -39 -21 -63 l-26 -31 22 -30 c12 -17
19 -34 15 -38 -4 -4 -31 -6 -62 -5 -37 1 -65 -4 -86 -16 -51 -29 -83 -33 -123
-16 -43 18 -97 19 -125 4 -16 -8 -26 -7 -45 6 -34 22 -30 33 14 40 20 4 49 15
64 26 30 21 49 24 64 10 5 -6 27 -13 49 -16 37 -6 43 -3 82 34 23 23 50 41 60
41 10 0 29 7 41 16 20 14 22 23 22 105 l0 89 43 -6 c23 -3 48 -7 55 -10z
m-3006 -90 c73 -53 159 -115 190 -138 32 -23 56 -45 54 -51 -4 -16 -86 -26
-155 -20 -78 7 -159 44 -200 91 -30 33 -31 39 -31 124 0 50 2 90 5 90 3 0 64
-43 137 -96z m1938 78 c20 -18 20 -19 -5 -32 -39 -21 -56 -53 -45 -88 7 -27 5
-33 -16 -46 -13 -9 -28 -16 -33 -16 -15 0 -31 -35 -31 -66 0 -30 24 -53 58
-54 34 0 27 -27 -12 -45 -19 -9 -42 -28 -51 -42 -9 -13 -34 -42 -55 -64 -32
-33 -44 -39 -78 -39 -49 0 -58 -11 -36 -45 16 -25 16 -25 -10 -25 -19 0 -26 5
-26 20 0 11 -6 38 -12 60 -11 33 -17 40 -42 42 -27 3 -31 8 -43 53 -17 67 -18
65 27 65 35 0 41 4 55 34 18 37 37 46 101 46 43 0 64 14 64 42 0 36 60 151 97
184 42 38 65 42 93 16z m165 -22 c29 -45 41 -49 78 -19 27 21 55 16 74 -14 4
-6 18 -20 30 -31 20 -16 26 -17 54 -6 25 11 32 11 39 1 8 -14 -1 -62 -20 -103
-19 -39 -7 -58 35 -58 36 0 36 -1 30 -32 -8 -39 -48 -110 -83 -150 -21 -24
-33 -28 -76 -28 -75 0 -177 28 -210 59 -16 14 -49 53 -73 85 l-44 59 26 21
c28 24 55 110 55 179 0 35 5 45 28 59 15 10 28 18 29 18 2 0 14 -18 28 -40z
m416 -1 c18 -13 29 -29 29 -45 0 -27 -15 -32 -24 -9 -3 9 -18 15 -36 15 -32 0
-33 2 -24 38 8 27 18 28 55 1z m-1563 -61 c42 -23 96 -62 119 -85 23 -24 51
-43 62 -43 38 0 113 -43 170 -96 65 -61 58 -66 -54 -34 -111 32 -190 77 -259
147 -48 48 -72 65 -99 70 -33 5 -38 3 -47 -21 -5 -15 -10 -46 -10 -69 0 -89
-30 -137 -85 -137 -19 0 -18 7 0 116 21 126 34 163 64 179 40 22 56 18 139
-27z m2382 -38 c0 -5 -2 -10 -4 -10 -3 0 -8 5 -11 10 -3 6 -1 10 4 10 6 0 11
-4 11 -10z m-193 -36 c22 -16 33 -33 33 -50 0 -34 -48 -104 -72 -104 -27 0
-67 29 -84 61 -18 37 -18 48 6 87 25 41 68 43 117 6z m-2431 -56 c5 -28 0 -44
-21 -76 l-27 -40 -86 0 c-86 0 -105 -5 -209 -53 -51 -23 -88 -24 -137 -4 -76
32 -31 60 114 70 126 10 206 41 295 114 27 22 53 37 58 32 4 -4 10 -24 13 -43z
m-2011 -29 c17 -16 53 -60 80 -97 33 -43 75 -84 120 -115 39 -26 71 -54 73
-61 3 -15 -52 -66 -71 -66 -28 0 -184 119 -224 170 -23 30 -73 85 -110 122
-37 37 -65 69 -62 73 3 3 26 11 50 19 53 16 97 2 144 -45z m2271 -1 l59 -61
-60 -28 c-70 -32 -93 -35 -102 -14 -8 24 19 165 32 165 7 0 38 -28 71 -62z
m2329 32 c6 -10 -45 -117 -134 -280 -114 -208 -138 -282 -95 -288 16 -2 32 10
60 48 22 28 53 68 69 89 17 22 55 74 85 117 60 84 108 139 116 132 6 -7 -90
-176 -122 -214 -27 -33 -35 -43 -49 -66 -5 -8 -23 -33 -40 -56 -16 -22 -75
-110 -130 -196 -92 -143 -102 -154 -125 -149 -14 3 -27 7 -29 9 -11 9 26 162
47 193 13 19 30 62 37 95 16 77 35 134 74 219 17 37 31 70 31 73 0 6 15 42 43
104 19 41 129 180 143 180 7 0 16 -5 19 -10z m102 -27 c-3 -10 -5 -4 -5 12 0
17 2 24 5 18 2 -7 2 -21 0 -30z m-1913 -26 c-7 -19 -58 -36 -78 -25 -25 14
-19 26 17 31 62 8 66 7 61 -6z m-3138 -82 c4 -18 -2 -36 -25 -67 -17 -23 -31
-48 -31 -56 0 -33 43 -152 61 -168 10 -9 19 -29 19 -43 0 -37 33 -86 82 -121
69 -49 78 -59 78 -80 0 -18 -5 -17 -48 15 -88 63 -172 151 -261 274 -61 85
-62 99 -14 197 44 91 122 118 139 49z m1645 14 c41 -17 110 -51 155 -75 67
-37 90 -44 135 -44 34 0 71 7 95 19 62 30 124 43 171 36 24 -3 43 -10 43 -15
0 -5 -27 -28 -61 -51 -58 -39 -61 -40 -79 -24 -24 22 -54 15 -124 -29 -69 -45
-146 -70 -189 -62 -19 4 -65 33 -112 71 -90 73 -184 125 -227 125 -42 0 -33
29 17 57 54 30 89 29 176 -8z m3355 -17 c-19 -36 -51 -65 -69 -60 -13 3 -14 8
-2 43 18 49 41 68 66 54 17 -9 18 -12 5 -37z m-301 -12 c18 -15 19 -41 3 -62
-12 -15 -20 -14 -85 14 -40 17 -70 35 -67 40 18 29 118 34 149 8z m-509 -23
c8 -7 -131 -280 -144 -285 -16 -5 -22 54 -11 105 40 194 42 197 107 190 23 -2
45 -7 48 -10z m-1443 -25 c81 -37 121 -72 149 -130 13 -28 60 -84 116 -140 95
-94 109 -122 59 -122 -52 0 -153 97 -207 199 -38 72 -115 153 -171 182 -40 20
-51 39 -24 39 9 0 43 -13 78 -28z m197 8 c86 -12 128 -28 187 -69 l48 -34 -30
-9 c-42 -12 -100 -2 -165 28 -99 45 -194 119 -127 100 12 -4 51 -11 87 -16z
m2286 -11 c29 -16 56 -34 58 -38 3 -4 0 -24 -6 -43 l-11 -36 -36 18 c-20 10
-58 21 -84 25 -57 8 -66 23 -44 71 21 44 51 45 123 3z m-2617 -22 c45 -15 79
-35 117 -70 105 -96 95 -164 -34 -228 -85 -43 -117 -49 -271 -50 -111 -1 -115
0 -187 36 -127 62 -136 125 -34 218 78 71 106 85 124 66 7 -8 16 -26 20 -41 6
-24 3 -28 -17 -28 -35 0 -55 -21 -58 -60 -4 -42 6 -61 26 -53 29 11 66 -7 77
-37 11 -34 16 -36 44 -15 25 19 43 19 66 -2 17 -15 19 -15 33 3 8 10 15 24 15
30 0 13 50 36 71 34 29 -5 35 1 31 28 -3 22 1 30 22 40 41 18 31 32 -23 32
-69 0 -100 14 -143 63 l-38 42 0 -37 c0 -34 -3 -38 -25 -38 -19 0 -29 10 -45
40 -16 31 -17 41 -8 45 56 18 147 12 237 -18z m1841 17 c45 -8 90 -19 99 -24
9 -4 30 -14 48 -20 45 -17 67 -44 59 -75 -8 -30 -15 -31 -69 -6 -227 103 -293
105 -344 14 -25 -45 -70 -89 -80 -79 -12 11 17 99 44 134 27 36 91 70 134 71
15 1 64 -6 109 -15z m-2947 -31 c32 -10 67 -34 110 -74 134 -127 204 -137 376
-51 57 29 106 52 108 52 1 0 3 -6 3 -14 0 -21 -77 -84 -171 -141 -77 -47 -87
-50 -148 -50 -59 1 -72 5 -121 37 -30 20 -81 66 -114 102 -61 70 -107 100
-169 111 -47 9 -53 19 -25 39 25 17 72 14 151 -11z m2099 -12 c12 -11 28 -202
22 -255 -4 -28 -15 -70 -25 -93 -26 -62 -51 -58 -122 18 -65 68 -73 70 -153
23 -72 -42 -77 -57 -72 -210 2 -73 7 -136 10 -140 4 -3 14 -4 23 -1 12 5 15
27 15 126 0 66 5 131 11 144 11 24 66 57 94 57 7 0 29 -21 47 -46 39 -55 78
-78 118 -69 35 8 53 28 77 85 15 37 18 72 18 193 0 81 2 147 4 147 3 0 20 -6
39 -12 38 -14 38 -7 7 -158 -9 -41 -19 -122 -24 -180 -13 -168 -32 -191 -123
-146 -62 31 -127 34 -150 9 -35 -41 -42 -69 -43 -191 -1 -67 -4 -124 -6 -126
-2 -2 -23 -6 -46 -9 l-43 -5 -36 76 c-81 172 -96 220 -96 317 -1 98 17 176 52
225 24 34 71 50 145 50 75 0 107 24 149 114 36 75 36 75 69 69 17 -3 35 -8 39
-12z m1298 -17 c0 -11 -51 -72 -65 -78 -11 -4 -12 0 -4 22 13 34 38 62 56 62
7 0 13 -3 13 -6z m-4596 -29 c10 -8 24 -25 30 -37 7 -13 22 -24 36 -26 14 -1
43 -7 66 -13 37 -10 40 -13 36 -41 l-4 -30 -32 31 c-34 33 -71 40 -109 19 -12
-7 -24 -16 -27 -19 -3 -3 -15 -8 -28 -11 -44 -12 -66 55 -37 112 17 33 39 37
69 15z m624 -7 c29 -6 51 -16 49 -22 -2 -6 -37 -13 -78 -16 -70 -5 -82 -10
-178 -68 -96 -57 -105 -60 -117 -44 -20 26 -17 35 24 73 55 53 104 87 132 92
30 5 97 -1 168 -15z m2502 4 c0 -5 -9 -17 -20 -27 -16 -14 -20 -15 -20 -4 0
16 19 39 32 39 4 0 8 -4 8 -8z m-2019 -22 c12 -7 19 -21 19 -40 0 -24 -15 -46
-70 -102 l-69 -71 -11 29 c-7 16 -10 58 -8 93 3 52 8 67 27 82 25 21 81 25
112 9z m2959 5 c0 -3 -19 -24 -42 -47 -41 -41 -43 -42 -46 -20 -5 36 24 72 58
72 17 0 30 -2 30 -5z m-3206 -35 c0 -14 -7 -94 -14 -179 -11 -123 -12 -176 -2
-270 17 -171 50 -259 138 -376 50 -67 54 -79 22 -72 -49 11 -234 79 -245 90
-6 7 -22 46 -34 87 -20 65 -23 96 -23 240 0 172 6 215 58 401 13 48 27 92 31
99 4 6 21 10 38 8 27 -2 32 -7 31 -28z m4074 15 c9 -9 -10 -36 -42 -59 -18
-14 -42 -21 -69 -20 -51 1 -147 23 -147 34 0 4 10 20 22 35 l22 28 104 -6 c57
-3 107 -9 110 -12z m-1373 -12 c21 -21 14 -72 -25 -194 -16 -48 -32 -116 -35
-151 -11 -102 -24 -137 -68 -185 -48 -52 -103 -83 -147 -83 -52 0 -95 -24
-110 -61 -21 -54 -30 -62 -46 -42 -22 30 -12 208 16 263 11 23 37 23 69 1 16
-12 49 -28 72 -37 58 -20 92 -6 118 50 19 38 25 75 51 274 11 87 27 151 42
170 14 17 43 15 63 -5z m620 7 c3 -5 1 -10 -4 -10 -6 0 -11 5 -11 10 0 6 2 10
4 10 3 0 8 -4 11 -10z m-1390 -20 c33 -6 70 -13 83 -15 l23 -6 -33 -46 c-18
-25 -39 -48 -45 -50 -24 -9 -102 38 -133 80 -39 53 -38 61 8 53 20 -4 64 -11
97 -16z m880 4 c-15 -363 -18 -401 -37 -451 -23 -62 -39 -77 -73 -69 -29 7
-32 35 -14 145 22 140 41 214 95 379 4 15 29 11 29 -4z m489 -48 c62 -40 96
-79 96 -112 0 -29 0 -29 -81 0 -80 29 -104 44 -120 73 -10 18 -9 27 5 48 22
33 36 32 100 -9z m-3471 2 c10 -5 17 -17 15 -26 -2 -13 -19 -19 -71 -25 -74
-8 -137 -32 -206 -80 -46 -31 -61 -27 -61 19 0 35 114 110 189 125 40 7 107 1
134 -13z m572 -58 c64 -64 64 -79 3 -80 -82 0 -200 -45 -236 -89 -11 -14 -14
-14 -22 -1 -23 37 -10 63 78 155 63 66 91 89 102 84 8 -4 42 -35 75 -69z
m3021 55 c13 -13 13 -15 1 -15 -8 0 -20 7 -27 15 -9 11 -10 15 -1 15 7 0 19
-7 27 -15z m-4183 -88 c15 -34 27 -65 27 -70 0 -12 -42 15 -87 57 -34 32 -40
43 -32 58 6 11 21 18 37 18 23 -1 31 -9 55 -63z m4657 42 c19 -5 47 -9 62 -9
15 0 30 -5 33 -11 10 -15 -12 -63 -36 -78 -18 -11 -23 -10 -36 8 -8 12 -25 21
-37 21 -35 0 -126 31 -126 43 0 6 8 19 17 29 17 19 41 18 123 -3z m-3000 -26
c0 -10 5 -52 10 -93 9 -66 8 -76 -7 -87 -34 -25 -66 -15 -127 41 l-59 54 44
28 c65 41 123 74 132 74 4 0 7 -8 7 -17z m2251 1 c51 -26 74 -113 48 -181 -13
-35 -72 -97 -121 -129 -53 -34 -155 -34 -192 -1 -14 12 -26 31 -28 42 -3 17 1
19 27 15 17 -3 53 -5 82 -5 62 0 106 31 166 115 l38 54 -39 39 c-31 31 -47 39
-77 40 -36 1 -44 -5 -112 -78 -73 -79 -73 -79 -73 -47 0 38 19 79 48 105 49
45 175 61 233 31z m-3078 -41 c3 -16 13 -57 21 -93 9 -36 20 -83 25 -105 21
-92 52 -202 68 -235 31 -68 91 -146 179 -233 106 -105 129 -111 129 -32 0 60
12 83 62 123 72 56 99 65 177 58 241 -21 246 -20 305 16 104 63 143 145 103
217 -10 19 -36 44 -57 55 -39 20 -46 20 -187 -10 -31 -7 -33 -3 -18 27 10 17
22 19 124 19 131 0 176 -14 207 -63 28 -45 23 -145 -12 -212 -21 -41 -39 -58
-104 -98 l-80 -49 -85 6 c-47 4 -111 9 -144 12 -88 9 -143 -3 -177 -37 -42
-43 -69 -102 -69 -153 l0 -44 -37 9 c-21 5 -55 9 -76 9 -52 0 -100 27 -180
100 -131 120 -181 226 -214 450 -14 102 -15 128 -4 203 13 89 33 115 44 60z
m1795 -106 c65 -46 72 -54 72 -85 0 -34 0 -34 -37 -27 -71 12 -144 66 -204
149 -27 37 -37 75 -23 89 4 3 32 -12 63 -34 31 -23 89 -64 129 -92z m-2067
103 c25 -14 26 -71 2 -92 -32 -28 -166 -78 -208 -78 -22 0 -45 35 -45 69 0 22
45 65 95 90 44 22 125 27 156 11z m4064 -38 c46 -7 50 -10 47 -32 -1 -14 -16
-38 -32 -55 -39 -39 -93 -39 -168 -1 l-52 26 16 33 c28 54 29 55 86 45 29 -5
76 -12 103 -16z m-780 -12 c9 -14 -21 -77 -42 -88 -10 -6 -35 -13 -56 -17 -37
-7 -37 -7 -37 26 1 37 14 59 45 77 24 14 82 16 90 2z m271 -33 l26 -23 -27
-104 c-14 -58 -30 -109 -34 -113 -5 -5 -18 4 -30 19 -18 23 -21 40 -21 135 l0
109 29 0 c17 0 42 -10 57 -23z m-1610 -99 c12 -18 109 -74 151 -86 41 -12 70
-43 58 -62 -3 -5 -38 8 -78 30 -117 62 -190 83 -287 84 -88 1 -106 -4 -218
-55 -76 -35 -80 -35 -91 -6 -23 62 -23 64 6 70 139 28 219 55 279 96 l58 39
58 -50 c32 -27 61 -54 64 -60z m-1151 72 c61 -14 86 -40 79 -79 -4 -18 0 -38
10 -54 23 -35 11 -73 -33 -102 -42 -29 -64 -31 -145 -8 -66 17 -86 32 -148
106 l-41 48 29 36 c59 73 116 85 249 53z m3125 -69 l24 -19 -24 -21 c-27 -22
-156 -91 -171 -91 -25 0 17 84 67 134 21 22 74 20 104 -3z m-3955 -1 c34 -13
27 -22 -45 -61 -33 -17 -66 -41 -73 -53 -8 -12 -20 -61 -28 -109 -17 -110 -19
-114 -54 -91 -104 68 -49 267 84 308 56 18 82 19 116 6z m-269 -71 c3 -6 1
-16 -5 -22 -6 -6 -11 -21 -11 -34 0 -12 -4 -32 -9 -45 -5 -13 -12 -35 -15 -50
-4 -16 -11 -28 -16 -28 -18 0 -110 65 -110 78 0 15 48 94 64 104 17 12 94 9
102 -3z m1587 -50 c24 -30 21 -67 -9 -106 -44 -58 -106 -77 -211 -67 -62 7
-64 8 -58 31 6 25 49 99 69 118 64 64 166 76 209 24z m-1297 -14 c7 -41 0 -98
-21 -158 -8 -23 -15 -52 -15 -65 0 -28 -24 -38 -55 -24 -29 13 -44 71 -39 154
4 94 28 124 101 127 18 1 23 -6 29 -34z m1774 10 c15 -8 39 -29 53 -46 26 -34
55 -33 37 1 -5 10 -10 28 -10 39 0 17 6 21 30 21 33 0 53 -24 75 -88 17 -49
29 -47 35 8 6 50 17 53 75 22 41 -23 44 -29 38 -73 -4 -30 -2 -39 9 -39 9 0
22 10 30 21 20 31 52 17 82 -34 46 -80 45 -153 -2 -204 -38 -42 -82 -57 -139
-48 -43 6 -56 15 -124 84 -79 81 -133 114 -220 132 -61 13 -95 6 -104 -22 -9
-27 -6 -29 62 -43 56 -11 59 -13 84 -61 48 -96 53 -112 39 -145 -27 -66 -131
-79 -210 -26 -48 31 -47 49 0 56 59 9 45 27 -26 33 -51 5 -75 13 -102 34 l-36
27 37 15 c20 7 37 18 37 22 0 5 -18 20 -40 34 -22 14 -40 33 -40 42 0 25 92
174 118 191 38 25 88 18 132 -17 21 -17 41 -31 44 -31 13 0 4 28 -19 62 -14
20 -25 39 -25 42 0 12 52 6 80 -9z m1753 -75 c42 -27 77 -51 77 -53 0 -3 -21
-21 -47 -41 -62 -48 -98 -48 -181 1 -34 20 -61 40 -60 45 3 7 119 96 128 97 3
1 40 -21 83 -49z m-398 19 c15 -5 182 -138 234 -185 2 -2 -2 -10 -9 -18 -19
-23 -76 -31 -103 -14 -12 8 -39 18 -61 21 -64 10 -103 44 -170 149 -17 26 -17
27 3 47 21 21 53 21 106 0z m-227 -56 c32 -15 82 -53 114 -85 31 -31 81 -73
112 -94 31 -20 56 -39 56 -41 0 -2 -12 -8 -27 -14 -22 -8 -41 -3 -127 40 -130
64 -266 141 -266 152 0 15 52 69 67 69 8 0 40 -12 71 -27z m-138 -111 c45 -11
79 -28 115 -57 27 -23 77 -59 110 -80 l60 -38 -50 -23 c-110 -51 -147 -42
-265 66 -36 32 -78 64 -95 70 -49 19 -60 26 -63 44 -10 49 47 54 188 18z
m-2010 12 c0 -7 -80 -106 -95 -116 -5 -4 -14 -8 -19 -8 -13 0 -116 107 -116
120 0 6 43 10 115 10 63 0 115 -3 115 -6z m1773 -120 c21 -22 28 -24 45 -15
44 23 76 13 131 -41 29 -28 57 -60 62 -70 9 -16 5 -18 -27 -18 -24 0 -64 15
-118 44 -44 24 -120 56 -168 71 -49 14 -88 30 -88 34 0 17 16 21 76 21 55 0
66 -3 87 -26z m-1490 -15 c20 -5 37 -13 37 -16 0 -3 -23 -40 -51 -83 -66 -99
-104 -119 -168 -85 -86 44 -48 160 59 183 61 13 79 14 123 1z m228 -39 c-28
-22 -72 -66 -98 -99 -56 -69 -82 -86 -117 -77 -33 8 -33 22 4 79 41 65 164
135 238 137 20 0 16 -6 -27 -40z m678 -14 c44 -51 43 -66 -6 -66 -27 0 -53 44
-53 90 0 40 7 37 59 -24z m476 3 c65 -12 137 -45 174 -80 l23 -22 -32 -13
c-45 -19 -70 -18 -142 9 -35 13 -91 30 -125 37 -35 8 -63 19 -63 26 0 18 33
42 65 47 17 2 33 5 36 6 3 0 32 -4 64 -10z m-987 -11 c23 -23 12 -43 -32 -61
-24 -10 -62 -38 -85 -63 -38 -40 -47 -44 -88 -44 l-45 0 6 32 c11 57 87 118
171 139 45 11 60 10 73 -3z m117 -123 c33 -18 61 -38 63 -43 2 -6 -16 -13 -40
-18 -47 -8 -194 -7 -208 1 -15 9 2 44 32 70 40 34 80 31 153 -10z m731 13 c35
-6 61 -15 59 -18 -3 -4 -49 -11 -102 -14 -54 -4 -129 -11 -168 -16 -38 -5
-107 -11 -152 -15 -79 -5 -83 -4 -83 15 0 26 26 36 125 48 118 13 249 14 321
0z"/>
<path d="M1234 4685 c-12 -31 8 -83 64 -170 33 -50 85 -115 118 -146 57 -54
172 -129 198 -129 6 0 16 -4 21 -9 6 -5 28 -14 50 -21 22 -6 65 -18 95 -27 39
-12 99 -17 210 -17 l155 -1 65 33 c74 37 99 56 123 93 14 21 15 28 5 37 -10 7
-29 -2 -76 -37 -80 -61 -145 -81 -253 -81 -76 1 -226 23 -319 48 -152 40 -311
179 -393 345 -27 53 -51 97 -53 97 -3 0 -7 -7 -10 -15z"/>
<path d="M4295 4120 c-3 -5 -1 -27 5 -47 21 -76 36 -79 70 -12 20 37 20 40 3
45 -10 3 -26 10 -35 15 -23 12 -35 11 -43 -1z"/>
<path d="M4200 4066 c0 -36 4 -45 21 -49 30 -8 49 2 49 27 0 27 -9 40 -37 55
-32 16 -33 15 -33 -33z"/>
<path d="M4670 4278 c-16 -27 -19 -44 -14 -98 10 -119 13 -129 45 -146 46 -23
59 -13 59 46 0 35 -8 67 -26 101 -14 28 -24 53 -22 55 4 3 102 -58 122 -77 5
-5 -2 -23 -17 -43 -15 -19 -27 -41 -27 -49 0 -21 26 -39 55 -39 46 0 55 17 55
109 0 105 -9 126 -53 118 -27 -5 -37 -1 -61 24 -42 44 -89 43 -116 -1z"/>
</g>
</svg>
