<?xml version="1.0" encoding="iso-8859-1"?>
<!-- Generator: Adobe Illustrator 19.0.0, SVG Export Plug-In . SVG Version: 6.00 Build 0)  -->
<svg version="1.1" id="Capa_1" xmlns="http://www.w3.org/2000/svg" xmlns:xlink="http://www.w3.org/1999/xlink" x="0px" y="0px"
	 viewBox="0 0 512 512" style="enable-background:new 0 0 512 512;" xml:space="preserve">
<path style="fill:#E7E4CD;" d="M256,504.5c-66.377,0-128.781-25.848-175.716-72.784C33.348,384.781,7.5,322.377,7.5,256
	S33.348,127.219,80.284,80.284C127.219,33.348,189.623,7.5,256,7.5s128.781,25.848,175.716,72.784
	C478.652,127.219,504.5,189.623,504.5,256s-25.848,128.781-72.784,175.716C384.781,478.652,322.377,504.5,256,504.5z"/>
<path style="fill:#C1BDAB;" d="M256,474.338c-58.32,0-113.15-22.711-154.389-63.95S37.662,314.32,37.662,256
	s22.711-113.15,63.95-154.389S197.68,37.662,256,37.662s113.15,22.711,154.389,63.95s63.95,96.068,63.95,154.389
	s-22.711,113.15-63.95,154.389S314.32,474.338,256,474.338z"/>
<path style="fill:#ADA999;" d="M256,37.662c-58.32,0-113.15,22.711-154.389,63.95S37.662,197.68,37.662,256
	c0,43.914,12.881,85.846,36.849,121.49c35.644,23.967,77.576,36.849,121.49,36.849c58.32,0,113.15-22.711,154.389-63.95
	S414.34,254.321,414.34,196c0-43.914-12.881-85.846-36.849-121.49C341.846,50.543,299.914,37.662,256,37.662z"/>
<path style="fill:#7A5436;" d="M256,67.5C151.894,67.5,67.5,151.894,67.5,256c0,78.378,47.836,145.583,115.904,174.013
	l213.062-299.72C361.952,91.753,311.808,67.5,256,67.5z"/>
<path style="fill:#A57D48;" d="M137.5,306c0,47.678,17.71,91.214,46.899,124.411C206.477,439.484,230.651,444.5,256,444.5
	c104.106,0,188.5-84.394,188.5-188.5c0-47.678-18.844-92.51-48.034-125.707C374.388,121.22,351.349,117.5,326,117.5
	C221.894,117.5,137.5,201.894,137.5,306z"/>
<path style="fill:#827061;" d="M349.905,315.31l-56.569-56.569c-7.394-1.484-13.697-0.444-17.677,3.536
	c-3.148,3.148-4.458,7.749-4.134,13.193l21.811,39.84c19.526,19.526,43.27,27.441,53.033,17.678
	C350.349,329.007,351.389,322.703,349.905,315.31z"/>
<path style="fill:#6D5B4D;" d="M371.118,294.096l-56.569-56.569c-7.394-1.484-13.697-0.444-17.677,3.536s-5.02,10.284-3.536,17.677
	c2.157,10.744,9.647,23.789,21.214,35.356s24.612,19.057,35.356,21.214c7.394,1.484,13.697,0.444,17.677-3.536
	S372.602,301.49,371.118,294.096z"/>
<path style="fill:#625143;" d="M392.331,272.883l-56.569-56.569c-7.394-1.484-13.697-0.444-17.677,3.536s-5.02,10.284-3.536,17.677
	c2.157,10.744,9.647,23.789,21.214,35.356c11.566,11.566,24.612,19.057,35.356,21.214c7.394,1.484,13.697,0.444,17.677-3.536
	C392.775,286.581,393.816,280.277,392.331,272.883z"/>
<g>
	<path style="fill:#584639;" d="M392.331,272.883c7.394,1.484,13.697,0.444,17.677-3.536c9.763-9.763,1.849-33.507-17.678-53.033
		c-19.526-19.526-43.27-27.441-53.033-17.678c-3.98,3.98-5.02,10.284-3.536,17.677c2.157,10.744,9.647,23.789,21.214,35.356
		C368.542,263.236,381.587,270.726,392.331,272.883z"/>
	<path style="fill:#584639;" d="M55.557,11.67c-5.983-5.732-15.481-5.529-21.213,0.455c-5.732,5.983-5.529,15.481,0.455,21.213
		l150.218,143.915c2.14-7.478,5.096-14.62,8.76-21.326C128.077,87.354,55.634,11.744,55.557,11.67z"/>
	<path style="fill:#584639;" d="M11.67,34.798c-5.732,5.983-5.529,15.481,0.455,21.213L181.75,218.519
		c-0.624-5.228-0.869-10.57-0.693-16.002c0.136-4.178,0.522-8.294,1.138-12.338C113.848,118.842,32.964,34.422,32.883,34.344
		C26.899,28.611,17.402,28.815,11.67,34.798z"/>
</g>
<path style="fill:#FCF1BA;" d="M272.033,275.967c29.289,29.289,29.289,76.777,0,106.066s-76.777,29.289-106.066,0
	s-50.503-97.99-21.213-127.279S242.744,246.678,272.033,275.967z"/>
<path style="fill:#D9B43A;" d="M250.82,360.82c-17.545,17.545-46.094,17.545-63.64,0c-17.545-17.545-17.545-46.094,0-63.64
	c17.545-17.545,46.094-17.545,63.64,0C268.365,314.726,268.365,343.274,250.82,360.82z"/>
<path d="M437.02,74.98C388.668,26.629,324.38,0,256,0c-46.296,0-91.659,12.491-131.186,36.124c-3.555,2.125-4.714,6.73-2.588,10.286
	c2.125,3.556,6.732,4.715,10.286,2.588C169.712,26.756,212.414,15,256,15c132.888,0,241,108.112,241,241S388.888,497,256,497
	S15,388.888,15,256c0-43.769,11.849-86.625,34.265-123.936c2.133-3.55,0.984-8.158-2.566-10.291
	c-3.552-2.133-8.158-0.984-10.292,2.566C12.589,163.983,0,209.51,0,256c0,68.38,26.629,132.667,74.98,181.02
	C123.333,485.371,187.62,512,256,512s132.668-26.629,181.02-74.98C485.371,388.667,512,324.38,512,256S485.371,123.333,437.02,74.98
	z"/>
<path d="M106.8,405.2C66.948,365.347,45,312.36,45,256c0-4.142-3.358-7.5-7.5-7.5S30,251.858,30,256
	c0,60.366,23.508,117.12,66.194,159.806S195.634,482,256,482c4.143,0,7.5-3.358,7.5-7.5s-3.357-7.5-7.5-7.5
	C199.64,467,146.653,445.052,106.8,405.2z"/>
<path d="M405.199,106.8C445.052,146.654,467,199.641,467,256c0,4.142,3.357,7.5,7.5,7.5s7.5-3.358,7.5-7.5
	c0-60.366-23.508-117.12-66.193-159.806C373.12,53.508,316.366,30,256,30c-4.142,0-7.5,3.358-7.5,7.5s3.358,7.5,7.5,7.5
	C312.359,45,365.347,66.948,405.199,106.8z"/>
<path d="M181.877,366.123c10.235,10.235,23.679,15.353,37.123,15.353s26.888-5.118,37.123-15.353c20.47-20.47,20.47-53.776,0-74.246
	s-53.776-20.47-74.246,0S161.407,345.653,181.877,366.123z M219,291.518c9.603,0,19.206,3.655,26.517,10.966
	c14.621,14.622,14.621,38.412,0,53.033s-38.412,14.621-53.033,0c-14.621-14.622-14.621-38.412,0-53.033
	C199.794,295.173,209.397,291.518,219,291.518z"/>
<path d="M382.971,330.853c-2.93-2.929-7.678-2.929-10.607,0s-2.929,7.678,0,10.606l10,10c1.465,1.464,3.385,2.197,5.304,2.197
	s3.839-0.732,5.304-2.197c2.929-2.929,2.929-7.678,0-10.606L382.971,330.853z"/>
<path d="M104.97,300.853c-2.929-2.929-7.678-2.929-10.606,0c-2.929,2.929-2.929,7.678,0,10.606l10,10
	c1.464,1.464,3.384,2.197,5.303,2.197s3.839-0.732,5.303-2.197c2.929-2.929,2.929-7.678,0-10.606L104.97,300.853z"/>
<path d="M297.971,390.853c-2.93-2.929-7.678-2.929-10.607,0s-2.929,7.678,0,10.606l10,10c1.465,1.464,3.385,2.197,5.304,2.197
	s3.839-0.732,5.304-2.197c2.929-2.929,2.929-7.678,0-10.606L297.971,390.853z"/>
<circle cx="324.5" cy="388.66" r="7.5"/>
<circle cx="354.5" cy="368.66" r="7.5"/>
<circle cx="374.5" cy="168.66" r="7.5"/>
<circle cx="134.5" cy="218.66" r="7.5"/>
<circle cx="92.5" cy="234.66" r="7.5"/>
<circle cx="102.5" cy="274.66" r="7.5"/>
<circle cx="192.5" cy="110.66" r="7.5"/>
<path d="M94.311,145.137C71.846,177.737,60,215.92,60,256c0,52.353,20.387,101.573,57.407,138.593
	C154.427,431.612,203.647,452,256,452c52.354,0,101.573-20.387,138.593-57.407C431.612,357.573,452,308.354,452,256
	c0-52.353-20.388-101.573-57.406-138.593C357.573,80.388,308.354,60,256,60c-40.082,0-78.267,11.847-110.868,34.314
	C60.96,6.461,60.9,6.402,60.757,6.265l-0.011-0.011c-8.959-8.585-23.233-8.278-31.817,0.682c-4.094,4.273-6.296,9.865-6.241,15.772
	c-5.985-0.047-11.976,2.25-16.433,6.903l0,0c-8.583,8.96-8.278,23.234,0.682,31.817L94.311,145.137z M256,75
	c48.347,0,93.8,18.827,127.986,53.014S437,207.653,437,256s-18.827,93.8-53.015,127.987C349.8,418.173,304.347,437,256,437
	s-93.8-18.827-127.987-53.014C93.827,349.8,75,304.347,75,256c0-36.191,10.452-70.698,30.296-100.339l69.358,66.448
	c0.554,3.846,1.303,7.658,2.256,11.426c-15.42,1.345-28.253,6.71-37.459,15.916c-15.19,15.19-19.945,40.238-13.388,70.529
	c5.583,25.787,18.841,51.596,34.601,67.356c16.083,16.083,37.21,24.125,58.336,24.125s42.253-8.042,58.337-24.125
	c15.334-15.334,23.34-35.253,24.054-55.384c11.63,8.28,23.427,12.729,33.322,12.729c6.763,0,12.638-2.069,16.96-6.391
	c3.77-3.77,5.896-8.91,6.288-14.931c6.016-0.394,11.156-2.514,14.925-6.283c3.771-3.771,5.897-8.91,6.289-14.931
	c6.016-0.393,11.156-2.513,14.923-6.282c3.771-3.771,5.898-8.911,6.29-14.931c6.016-0.394,11.156-2.514,14.925-6.283
	c13.101-13.102,5.501-40.461-17.678-63.639c-10.252-10.251-22.01-17.935-33.11-21.634c-12.852-4.285-23.695-2.879-30.53,3.957
	c-3.769,3.769-5.895,8.907-6.288,14.924c-6.017,0.393-11.154,2.519-14.923,6.288c-3.77,3.769-5.896,8.907-6.289,14.924
	c-6.018,0.393-11.155,2.52-14.926,6.289c-3.769,3.77-5.895,8.907-6.288,14.924c-6.018,0.393-11.155,2.52-14.925,6.289
	c-1.384,1.384-2.545,2.949-3.486,4.668c-4.824-3.633-10.147-7.045-15.817-10.159c6.559-7.303,7.719-17.951,2.715-26.337
	c-4.056-6.798-5.824-14.608-5.113-22.586c1.582-17.748,16.158-32.324,33.907-33.905c4.01-0.356,9.729,0.362,13.422,1.195
	c3.622,1.048,4.77,3.996,5.097,5.225c0.33,1.245,0.805,4.436-1.939,7.18l-0.101,0.101c-1.864,1.864-4.672,2.548-7.516,1.831
	c-2.739-0.692-5.569-0.862-8.412-0.503c-10.159,1.28-18.148,9.271-19.43,19.43c-0.881,6.992,1.455,13.844,6.408,18.797
	c2.93,2.929,7.678,2.929,10.607,0s2.929-7.678,0-10.606c-1.653-1.653-2.431-3.955-2.133-6.315c0.416-3.306,3.118-6.007,6.422-6.423
	c0.979-0.124,1.944-0.069,2.862,0.164c8.015,2.026,16.162-0.131,21.809-5.779l0.1-0.1c5.721-5.72,7.896-13.804,5.819-21.625
	c-2.076-7.818-7.974-13.756-15.776-15.883l-0.291-0.073c-4.823-1.11-12.155-2.101-18.281-1.555
	c-25.279,2.252-45.262,22.235-47.514,47.514c-0.994,11.145,1.486,22.073,7.172,31.603c1.689,2.831,1.164,6.514-1.278,8.956
	c-1.62,1.619-3.794,1.728-5.33,1.535c-0.401-0.05-0.798-0.132-1.191-0.232c-0.729-0.286-1.459-0.566-2.193-0.841
	c-1.582-0.816-2.951-2.011-3.836-3.436c-5.839-11.158-9.008-24.594-8.484-35.988c1.583-34.445,29.806-62.667,64.251-64.25
	c15.228-0.698,29.822,3.581,42.194,12.379c9.021,6.413,21.22,5.417,29.008-2.372c4.689-4.69,7.064-11.173,6.516-17.785
	c-0.547-6.596-3.947-12.581-9.328-16.421c-20.213-14.425-44.046-21.624-68.94-20.814c-37.423,1.217-70.305,20.853-89.861,50.102
	c-13.619-14.215-25.812-26.941-36.756-38.364C185.299,85.453,219.807,75,256,75z M192.227,179.315
	c1.958-6.842,4.693-13.501,8.131-19.792l1.303-2.384c16.398-28.18,46.512-47.461,81.101-48.586
	c21.572-0.703,42.228,5.534,59.739,18.032c1.81,1.292,2.908,3.228,3.093,5.452c0.186,2.241-0.586,4.35-2.174,5.938
	c-2.594,2.593-6.676,2.909-9.708,0.754c-15.129-10.76-32.96-15.989-51.577-15.139c-20.479,0.941-39.807,9.509-54.422,24.124
	s-23.183,33.943-24.124,54.422c-0.499,10.846,1.574,22.717,5.777,33.801c-5.847-1.239-11.494-2.052-16.913-2.451
	c-1.568-5.322-2.665-10.756-3.298-16.269c-0.088-0.761-0.159-1.526-0.229-2.29c-0.057-0.626-0.11-1.252-0.155-1.88
	c-0.051-0.709-0.096-1.419-0.132-2.129c-0.038-0.769-0.063-1.54-0.083-2.311c-0.016-0.576-0.037-1.153-0.042-1.729
	c-0.012-1.369-0.005-2.741,0.04-4.116c0.029-0.896,0.073-1.795,0.128-2.695c0.012-0.204,0.029-0.407,0.042-0.611
	c0.049-0.73,0.104-1.46,0.17-2.19c0.016-0.175,0.033-0.35,0.049-0.525c0.077-0.81,0.163-1.62,0.26-2.428
	c0.01-0.08,0.019-0.159,0.028-0.239c0.114-0.924,0.239-1.846,0.379-2.765l0.112-0.738c0.546-3.418,1.273-6.777,2.166-10.069
	L192.227,179.315z M228.137,257.283c15.232,6.057,29.242,14.637,38.593,23.987c26.318,26.318,26.318,69.142,0,95.46
	c-26.316,26.318-69.14,26.318-95.459,0c-13.625-13.626-25.616-37.147-30.546-59.923c-5.362-24.771-1.96-45.456,9.333-56.75
	c7.785-7.785,20.029-11.82,35.001-11.82c6.748,0,14.053,0.82,21.749,2.486c6.101,1.321,12.253,3.152,18.256,5.381
	C226.059,256.56,227.083,256.958,228.137,257.283z M302.174,246.367c1.57-1.569,4.058-2.005,6.437-1.982
	c3.575,11.221,11.312,23.264,21.849,33.801c10.537,10.536,22.58,18.273,33.801,21.848c0.024,2.379-0.412,4.867-1.982,6.436
	c-2.646,2.647-7.908,2.08-10.846,1.495c-0.018-0.004-0.036-0.007-0.054-0.01c-9.688-1.945-21.472-9.109-31.526-19.162
	c-10.051-10.052-17.214-21.834-19.162-31.519c-0.004-0.021-0.008-0.042-0.012-0.062
	C300.094,254.275,299.528,249.014,302.174,246.367z M323.389,225.153c1.569-1.569,4.056-2.004,6.435-1.981
	c3.576,11.222,11.313,23.265,21.848,33.8c10.536,10.536,22.58,18.273,33.801,21.849c0.024,2.379-0.412,4.867-1.982,6.437
	c-2.651,2.651-7.926,2.077-10.86,1.492c-0.01-0.002-0.02-0.004-0.029-0.006c-0.002,0-0.005-0.001-0.007-0.001
	c-9.688-1.944-21.474-9.108-31.528-19.163c-10.052-10.052-17.215-21.834-19.162-31.519c-0.004-0.021-0.008-0.041-0.012-0.062
	C321.308,233.061,320.741,227.8,323.389,225.153z M344.602,203.94c2.532-2.534,8.209-2.656,15.18-0.333
	c8.805,2.935,18.735,9.5,27.246,18.011c18.346,18.345,22.724,37.38,17.679,42.426c-2.654,2.655-7.937,2.078-10.87,1.492
	c-0.003-0.001-0.005-0.001-0.008-0.001c-0.007-0.001-0.014-0.003-0.021-0.004l0,0c-9.688-1.945-21.475-9.109-31.528-19.164
	c-10.051-10.051-17.214-21.833-19.162-31.518c-0.004-0.021-0.008-0.041-0.012-0.062C342.521,211.849,341.954,206.587,344.602,203.94
	z M287.397,265.599c3.576,11.221,11.313,23.265,21.848,33.801c10.536,10.536,22.58,18.273,33.802,21.849
	c0.024,2.379-0.412,4.867-1.981,6.435c-4.976,4.973-23.55,0.778-41.652-16.922c-3.14-13.947-9.929-27.22-20.367-38.299
	c0.163-1.793,0.669-3.637,1.915-4.883C282.531,266.01,285.018,265.575,287.397,265.599z M39.759,17.313
	c1.472-1.536,3.444-2.309,5.42-2.309c1.828,0,3.658,0.662,5.096,1.994c3.324,3.463,76.945,80.303,134.368,140.238
	c-1.03,2.131-1.996,4.298-2.893,6.501L39.987,27.922C36.999,25.06,36.897,20.3,39.759,17.313z M17.085,39.987
	c2.833-2.958,7.525-3.086,10.517-0.315c3.321,3.461,77.028,80.39,146.677,153.086c-0.007,0.061-0.011,0.122-0.019,0.183
	c-0.273,2.351-0.476,4.723-0.6,7.115c-0.005,0.103-0.016,0.205-0.021,0.308L17.313,50.596
	C14.325,47.734,14.223,42.975,17.085,39.987L17.085,39.987z"/>
<path d="M127.238,191.156c0-4.142-3.358-7.5-7.5-7.5h-14.142c-4.142,0-7.5,3.358-7.5,7.5s3.358,7.5,7.5,7.5h14.142
	C123.88,198.656,127.238,195.298,127.238,191.156z"/>
<g>
</g>
<g>
</g>
<g>
</g>
<g>
</g>
<g>
</g>
<g>
</g>
<g>
</g>
<g>
</g>
<g>
</g>
<g>
</g>
<g>
</g>
<g>
</g>
<g>
</g>
<g>
</g>
<g>
</g>
</svg>
