<?xml version="1.0" standalone="no"?>
<!DOCTYPE svg PUBLIC "-//W3C//DTD SVG 20010904//EN"
 "http://www.w3.org/TR/2001/REC-SVG-20010904/DTD/svg10.dtd">
<svg version="1.0" xmlns="http://www.w3.org/2000/svg"
 width="225.000000pt" height="181.000000pt" viewBox="0 0 225.000000 181.000000"
 preserveAspectRatio="xMidYMid meet">

<g transform="translate(0.000000,181.000000) scale(0.100000,-0.100000)"
fill="#000000" stroke="none">
<path d="M0 905 l0 -905 1125 0 1125 0 0 905 0 905 -1125 0 -1125 0 0 -905z
m1213 531 c29 -13 71 -40 94 -60 47 -41 98 -137 108 -203 l7 -43 -60 0 -60 0
-11 46 c-7 28 -27 61 -52 89 -124 134 -342 80 -389 -97 l-11 -38 -59 0 c-33 0
-60 4 -60 8 0 4 7 35 15 67 54 207 284 318 478 231z m-597 -32 l22 -6 -25 -44
c-23 -40 -28 -44 -53 -39 -77 17 -193 -55 -226 -140 -17 -45 -17 -45 -66 -45
-48 0 -48 0 -42 28 24 103 109 204 196 235 43 16 155 22 194 11z m1109 -15
c90 -33 168 -127 190 -226 l7 -33 -50 0 c-46 0 -50 2 -57 28 -21 87 -110 155
-205 156 -56 1 -58 2 -79 40 -16 31 -18 41 -9 48 26 16 146 8 203 -13z m-609
-236 c17 -17 15 -18 -35 -21 -60 -4 -69 1 -51 23 17 20 64 19 86 -2z m-566
-13 c0 -5 -12 -10 -27 -10 -22 0 -25 2 -13 10 20 13 40 13 40 0z m1080 0 c12
-8 9 -10 -12 -10 -16 0 -28 5 -28 10 0 13 20 13 40 0z m-1295 -830 c21 -22 37
-40 34 -40 -3 0 -23 18 -44 40 -21 22 -37 40 -34 40 3 0 23 -18 44 -40z"/>
</g>
</svg>
